<?xml version="1.0" encoding="UTF-8" standalone="no"?>
<!DOCTYPE svg PUBLIC "-//W3C//DTD SVG 1.1//EN"
 "http://www.w3.org/Graphics/SVG/1.1/DTD/svg11.dtd">
<!-- Generated by graphviz version 7.0.6 (20230106.0513)
 -->
<!-- Title: G Pages: 1 -->
<svg width="2127pt" height="1268pt"
 viewBox="0.00 0.00 2127.20 1267.69" xmlns="http://www.w3.org/2000/svg" xmlns:xlink="http://www.w3.org/1999/xlink">
<g id="graph0" class="graph" transform="scale(1 1) rotate(0) translate(21.6 1246.09)">
<title>G</title>
<polygon fill="#111111" stroke="none" points="-21.6,21.6 -21.6,-1246.09 2105.6,-1246.09 2105.6,21.6 -21.6,21.6"/>
<!-- App.js -->
<g id="node1" class="node">
<title>App.js</title>
<path fill="none" stroke="#c6c5fe" d="M144.33,-529.49C144.33,-529.49 105.67,-529.49 105.67,-529.49 101.83,-529.49 98,-525.66 98,-521.82 98,-521.82 98,-514.16 98,-514.16 98,-510.32 101.83,-506.49 105.67,-506.49 105.67,-506.49 144.33,-506.49 144.33,-506.49 148.17,-506.49 152,-510.32 152,-514.16 152,-514.16 152,-521.82 152,-521.82 152,-525.66 148.17,-529.49 144.33,-529.49"/>
<text text-anchor="middle" x="125" y="-514.29" font-family="Arial" font-size="14.00" fill="#c6c5fe">App.js</text>
</g>
<!-- assets/style.css -->
<g id="node2" class="node">
<title>assets/style.css</title>
<path fill="none" stroke="#cfffac" d="M313.83,-570.49C313.83,-570.49 218.17,-570.49 218.17,-570.49 214.33,-570.49 210.5,-566.66 210.5,-562.82 210.5,-562.82 210.5,-555.16 210.5,-555.16 210.5,-551.32 214.33,-547.49 218.17,-547.49 218.17,-547.49 313.83,-547.49 313.83,-547.49 317.67,-547.49 321.5,-551.32 321.5,-555.16 321.5,-555.16 321.5,-562.82 321.5,-562.82 321.5,-566.66 317.67,-570.49 313.83,-570.49"/>
<text text-anchor="middle" x="266" y="-555.29" font-family="Arial" font-size="14.00" fill="#cfffac">assets/style.css</text>
</g>
<!-- App.js&#45;&gt;assets/style.css -->
<g id="edge1" class="edge">
<title>App.js&#45;&gt;assets/style.css</title>
<path fill="none" stroke="#757575" d="M152.47,-526.82C163.43,-530.4 176.29,-534.51 188,-537.99 194.71,-539.99 201.77,-542.01 208.79,-543.98"/>
<polygon fill="#757575" stroke="#757575" points="207.68,-547.31 218.25,-546.61 209.55,-540.56 207.68,-547.31"/>
</g>
<!-- containers/WholePageLoader.js -->
<g id="node3" class="node">
<title>containers/WholePageLoader.js</title>
<path fill="none" stroke="#cfffac" d="M1168.83,-1103.49C1168.83,-1103.49 976.17,-1103.49 976.17,-1103.49 972.33,-1103.49 968.5,-1099.66 968.5,-1095.82 968.5,-1095.82 968.5,-1088.16 968.5,-1088.16 968.5,-1084.32 972.33,-1080.49 976.17,-1080.49 976.17,-1080.49 1168.83,-1080.49 1168.83,-1080.49 1172.67,-1080.49 1176.5,-1084.32 1176.5,-1088.16 1176.5,-1088.16 1176.5,-1095.82 1176.5,-1095.82 1176.5,-1099.66 1172.67,-1103.49 1168.83,-1103.49"/>
<text text-anchor="middle" x="1072.5" y="-1088.29" font-family="Arial" font-size="14.00" fill="#cfffac">containers/WholePageLoader.js</text>
</g>
<!-- App.js&#45;&gt;containers/WholePageLoader.js -->
<g id="edge2" class="edge">
<title>App.js&#45;&gt;containers/WholePageLoader.js</title>
<path fill="none" stroke="#757575" d="M125.97,-529.57C126.03,-595.66 129.31,-924.98 188,-1002.99 243.89,-1077.28 289.24,-1065.88 380,-1085.99 617.83,-1138.68 684.43,-1099.39 928,-1095.99 937.31,-1095.86 946.97,-1095.68 956.66,-1095.48"/>
<polygon fill="#757575" stroke="#757575" points="956.61,-1098.98 966.53,-1095.25 956.45,-1091.98 956.61,-1098.98"/>
</g>
<!-- contexts/appContext.js -->
<g id="node4" class="node">
<title>contexts/appContext.js</title>
<path fill="none" stroke="#cfffac" d="M1141.33,-250.49C1141.33,-250.49 1003.67,-250.49 1003.67,-250.49 999.83,-250.49 996,-246.66 996,-242.82 996,-242.82 996,-235.16 996,-235.16 996,-231.32 999.83,-227.49 1003.67,-227.49 1003.67,-227.49 1141.33,-227.49 1141.33,-227.49 1145.17,-227.49 1149,-231.32 1149,-235.16 1149,-235.16 1149,-242.82 1149,-242.82 1149,-246.66 1145.17,-250.49 1141.33,-250.49"/>
<text text-anchor="middle" x="1072.5" y="-235.29" font-family="Arial" font-size="14.00" fill="#cfffac">contexts/appContext.js</text>
</g>
<!-- App.js&#45;&gt;contexts/appContext.js -->
<g id="edge3" class="edge">
<title>App.js&#45;&gt;contexts/appContext.js</title>
<path fill="none" stroke="#757575" d="M126.14,-506.13C127.18,-470.24 134.77,-361.25 188,-294.99 248.52,-219.66 286.24,-216.35 380,-192.99 611.57,-135.3 899.42,-194.62 1017.32,-224.27"/>
<polygon fill="#757575" stroke="#757575" points="1016.17,-227.59 1026.73,-226.66 1017.9,-220.8 1016.17,-227.59"/>
</g>
<!-- contexts/userContext.js -->
<g id="node5" class="node">
<title>contexts/userContext.js</title>
<path fill="none" stroke="#cfffac" d="M1399.83,-607.49C1399.83,-607.49 1258.17,-607.49 1258.17,-607.49 1254.33,-607.49 1250.5,-603.66 1250.5,-599.82 1250.5,-599.82 1250.5,-592.16 1250.5,-592.16 1250.5,-588.32 1254.33,-584.49 1258.17,-584.49 1258.17,-584.49 1399.83,-584.49 1399.83,-584.49 1403.67,-584.49 1407.5,-588.32 1407.5,-592.16 1407.5,-592.16 1407.5,-599.82 1407.5,-599.82 1407.5,-603.66 1403.67,-607.49 1399.83,-607.49"/>
<text text-anchor="middle" x="1329" y="-592.29" font-family="Arial" font-size="14.00" fill="#cfffac">contexts/userContext.js</text>
</g>
<!-- App.js&#45;&gt;contexts/userContext.js -->
<g id="edge4" class="edge">
<title>App.js&#45;&gt;contexts/userContext.js</title>
<path fill="none" stroke="#757575" d="M126.84,-506.25C130.74,-454.64 148.61,-248.22 188,-198.99 294.57,-65.83 368.94,-44.99 539.5,-44.99 539.5,-44.99 539.5,-44.99 833.5,-44.99 941.88,-44.99 1170.86,-169.08 1181,-179.99 1290.93,-298.34 1319.5,-503.98 1326.15,-572.8"/>
<polygon fill="#757575" stroke="#757575" points="1322.64,-572.85 1327.02,-582.5 1329.62,-572.23 1322.64,-572.85"/>
</g>
<!-- utils/api.js -->
<g id="node6" class="node">
<title>utils/api.js</title>
<path fill="none" stroke="#cfffac" d="M1102.83,-1062.49C1102.83,-1062.49 1042.17,-1062.49 1042.17,-1062.49 1038.33,-1062.49 1034.5,-1058.66 1034.5,-1054.82 1034.5,-1054.82 1034.5,-1047.16 1034.5,-1047.16 1034.5,-1043.32 1038.33,-1039.49 1042.17,-1039.49 1042.17,-1039.49 1102.83,-1039.49 1102.83,-1039.49 1106.67,-1039.49 1110.5,-1043.32 1110.5,-1047.16 1110.5,-1047.16 1110.5,-1054.82 1110.5,-1054.82 1110.5,-1058.66 1106.67,-1062.49 1102.83,-1062.49"/>
<text text-anchor="middle" x="1072.5" y="-1047.29" font-family="Arial" font-size="14.00" fill="#cfffac">utils/api.js</text>
</g>
<!-- App.js&#45;&gt;utils/api.js -->
<g id="edge5" class="edge">
<title>App.js&#45;&gt;utils/api.js</title>
<path fill="none" stroke="#757575" d="M126.43,-529.76C128.82,-590.2 142.12,-865.52 188,-934.99 243.2,-1018.57 283.62,-1025.74 380,-1052.99 613.15,-1118.91 908.46,-1079.65 1023.02,-1060.08"/>
<polygon fill="#757575" stroke="#757575" points="1023.43,-1063.56 1032.68,-1058.4 1022.23,-1056.67 1023.43,-1063.56"/>
</g>
<!-- views/GatewayAdd.js -->
<g id="node7" class="node">
<title>views/GatewayAdd.js</title>
<path fill="none" stroke="#c6c5fe" d="M331.33,-450.49C331.33,-450.49 200.67,-450.49 200.67,-450.49 196.83,-450.49 193,-446.66 193,-442.82 193,-442.82 193,-435.16 193,-435.16 193,-431.32 196.83,-427.49 200.67,-427.49 200.67,-427.49 331.33,-427.49 331.33,-427.49 335.17,-427.49 339,-431.32 339,-435.16 339,-435.16 339,-442.82 339,-442.82 339,-446.66 335.17,-450.49 331.33,-450.49"/>
<text text-anchor="middle" x="266" y="-435.29" font-family="Arial" font-size="14.00" fill="#c6c5fe">views/GatewayAdd.js</text>
</g>
<!-- App.js&#45;&gt;views/GatewayAdd.js -->
<g id="edge6" class="edge">
<title>App.js&#45;&gt;views/GatewayAdd.js</title>
<path fill="none" stroke="#757575" d="M147.11,-505.99C170.31,-492.81 207.79,-471.51 234.25,-456.47"/>
<polygon fill="#757575" stroke="#757575" points="235.87,-459.58 242.83,-451.59 232.41,-453.49 235.87,-459.58"/>
</g>
<!-- views/GatewayDetail.js -->
<g id="node8" class="node">
<title>views/GatewayDetail.js</title>
<path fill="none" stroke="#c6c5fe" d="M336.33,-668.49C336.33,-668.49 195.67,-668.49 195.67,-668.49 191.83,-668.49 188,-664.66 188,-660.82 188,-660.82 188,-653.16 188,-653.16 188,-649.32 191.83,-645.49 195.67,-645.49 195.67,-645.49 336.33,-645.49 336.33,-645.49 340.17,-645.49 344,-649.32 344,-653.16 344,-653.16 344,-660.82 344,-660.82 344,-664.66 340.17,-668.49 336.33,-668.49"/>
<text text-anchor="middle" x="266" y="-653.29" font-family="Arial" font-size="14.00" fill="#c6c5fe">views/GatewayDetail.js</text>
</g>
<!-- App.js&#45;&gt;views/GatewayDetail.js -->
<g id="edge7" class="edge">
<title>App.js&#45;&gt;views/GatewayDetail.js</title>
<path fill="none" stroke="#757575" d="M137.85,-529.84C161.75,-553.74 215.95,-607.94 245.28,-637.27"/>
<polygon fill="#757575" stroke="#757575" points="242.56,-639.5 252.11,-644.1 247.51,-634.55 242.56,-639.5"/>
</g>
<!-- views/GatewayEdit.js -->
<g id="node9" class="node">
<title>views/GatewayEdit.js</title>
<path fill="none" stroke="#c6c5fe" d="M330.83,-409.49C330.83,-409.49 201.17,-409.49 201.17,-409.49 197.33,-409.49 193.5,-405.66 193.5,-401.82 193.5,-401.82 193.5,-394.16 193.5,-394.16 193.5,-390.32 197.33,-386.49 201.17,-386.49 201.17,-386.49 330.83,-386.49 330.83,-386.49 334.67,-386.49 338.5,-390.32 338.5,-394.16 338.5,-394.16 338.5,-401.82 338.5,-401.82 338.5,-405.66 334.67,-409.49 330.83,-409.49"/>
<text text-anchor="middle" x="266" y="-394.29" font-family="Arial" font-size="14.00" fill="#c6c5fe">views/GatewayEdit.js</text>
</g>
<!-- App.js&#45;&gt;views/GatewayEdit.js -->
<g id="edge8" class="edge">
<title>App.js&#45;&gt;views/GatewayEdit.js</title>
<path fill="none" stroke="#757575" d="M130.01,-506.07C137.74,-484.95 156.75,-441.01 188,-417.99 189.36,-416.99 190.76,-416.04 192.19,-415.14"/>
<polygon fill="#757575" stroke="#757575" points="193.63,-418.34 200.83,-410.56 190.35,-412.16 193.63,-418.34"/>
</g>
<!-- views/Gateways.js -->
<g id="node10" class="node">
<title>views/Gateways.js</title>
<path fill="none" stroke="#c6c5fe" d="M322.33,-789.49C322.33,-789.49 209.67,-789.49 209.67,-789.49 205.83,-789.49 202,-785.66 202,-781.82 202,-781.82 202,-774.16 202,-774.16 202,-770.32 205.83,-766.49 209.67,-766.49 209.67,-766.49 322.33,-766.49 322.33,-766.49 326.17,-766.49 330,-770.32 330,-774.16 330,-774.16 330,-781.82 330,-781.82 330,-785.66 326.17,-789.49 322.33,-789.49"/>
<text text-anchor="middle" x="266" y="-774.29" font-family="Arial" font-size="14.00" fill="#c6c5fe">views/Gateways.js</text>
</g>
<!-- App.js&#45;&gt;views/Gateways.js -->
<g id="edge9" class="edge">
<title>App.js&#45;&gt;views/Gateways.js</title>
<path fill="none" stroke="#757575" d="M129.32,-529.66C137.25,-556.66 158.84,-625.06 188,-676.99 204.87,-707.03 229.83,-738.03 246.72,-757.62"/>
<polygon fill="#757575" stroke="#757575" points="243.86,-759.67 253.08,-764.89 249.13,-755.06 243.86,-759.67"/>
</g>
<!-- views/Login.js -->
<g id="node11" class="node">
<title>views/Login.js</title>
<path fill="none" stroke="#c6c5fe" d="M875.33,-1162.49C875.33,-1162.49 789.67,-1162.49 789.67,-1162.49 785.83,-1162.49 782,-1158.66 782,-1154.82 782,-1154.82 782,-1147.16 782,-1147.16 782,-1143.32 785.83,-1139.49 789.67,-1139.49 789.67,-1139.49 875.33,-1139.49 875.33,-1139.49 879.17,-1139.49 883,-1143.32 883,-1147.16 883,-1147.16 883,-1154.82 883,-1154.82 883,-1158.66 879.17,-1162.49 875.33,-1162.49"/>
<text text-anchor="middle" x="832.5" y="-1147.29" font-family="Arial" font-size="14.00" fill="#c6c5fe">views/Login.js</text>
</g>
<!-- App.js&#45;&gt;views/Login.js -->
<g id="edge10" class="edge">
<title>App.js&#45;&gt;views/Login.js</title>
<path fill="none" stroke="#757575" d="M126.3,-529.99C128.47,-611.55 142.9,-1082.58 188,-1124.99 355.87,-1282.86 670.53,-1203.39 786.82,-1166.41"/>
<polygon fill="#757575" stroke="#757575" points="787.57,-1169.84 796,-1163.44 785.41,-1163.18 787.57,-1169.84"/>
</g>
<!-- views/UserAdd.js -->
<g id="node12" class="node">
<title>views/UserAdd.js</title>
<path fill="none" stroke="#c6c5fe" d="M318.33,-368.49C318.33,-368.49 213.67,-368.49 213.67,-368.49 209.83,-368.49 206,-364.66 206,-360.82 206,-360.82 206,-353.16 206,-353.16 206,-349.32 209.83,-345.49 213.67,-345.49 213.67,-345.49 318.33,-345.49 318.33,-345.49 322.17,-345.49 326,-349.32 326,-353.16 326,-353.16 326,-360.82 326,-360.82 326,-364.66 322.17,-368.49 318.33,-368.49"/>
<text text-anchor="middle" x="266" y="-353.29" font-family="Arial" font-size="14.00" fill="#c6c5fe">views/UserAdd.js</text>
</g>
<!-- App.js&#45;&gt;views/UserAdd.js -->
<g id="edge11" class="edge">
<title>App.js&#45;&gt;views/UserAdd.js</title>
<path fill="none" stroke="#757575" d="M127.69,-506.09C132.19,-478.89 147.07,-411.84 188,-376.99 190.38,-374.96 192.95,-373.14 195.64,-371.49"/>
<polygon fill="#757575" stroke="#757575" points="197.19,-374.63 204.53,-366.99 194.03,-368.39 197.19,-374.63"/>
</g>
<!-- views/UserDetail.js -->
<g id="node13" class="node">
<title>views/UserDetail.js</title>
<path fill="none" stroke="#c6c5fe" d="M323.83,-529.49C323.83,-529.49 208.17,-529.49 208.17,-529.49 204.33,-529.49 200.5,-525.66 200.5,-521.82 200.5,-521.82 200.5,-514.16 200.5,-514.16 200.5,-510.32 204.33,-506.49 208.17,-506.49 208.17,-506.49 323.83,-506.49 323.83,-506.49 327.67,-506.49 331.5,-510.32 331.5,-514.16 331.5,-514.16 331.5,-521.82 331.5,-521.82 331.5,-525.66 327.67,-529.49 323.83,-529.49"/>
<text text-anchor="middle" x="266" y="-514.29" font-family="Arial" font-size="14.00" fill="#c6c5fe">views/UserDetail.js</text>
</g>
<!-- App.js&#45;&gt;views/UserDetail.js -->
<g id="edge12" class="edge">
<title>App.js&#45;&gt;views/UserDetail.js</title>
<path fill="none" stroke="#757575" d="M152.47,-517.99C163.01,-517.99 175.73,-517.99 188.76,-517.99"/>
<polygon fill="#757575" stroke="#757575" points="188.74,-521.49 198.74,-517.99 188.74,-514.49 188.74,-521.49"/>
</g>
<!-- views/UserEdit.js -->
<g id="node14" class="node">
<title>views/UserEdit.js</title>
<path fill="none" stroke="#c6c5fe" d="M317.83,-327.49C317.83,-327.49 214.17,-327.49 214.17,-327.49 210.33,-327.49 206.5,-323.66 206.5,-319.82 206.5,-319.82 206.5,-312.16 206.5,-312.16 206.5,-308.32 210.33,-304.49 214.17,-304.49 214.17,-304.49 317.83,-304.49 317.83,-304.49 321.67,-304.49 325.5,-308.32 325.5,-312.16 325.5,-312.16 325.5,-319.82 325.5,-319.82 325.5,-323.66 321.67,-327.49 317.83,-327.49"/>
<text text-anchor="middle" x="266" y="-312.29" font-family="Arial" font-size="14.00" fill="#c6c5fe">views/UserEdit.js</text>
</g>
<!-- App.js&#45;&gt;views/UserEdit.js -->
<g id="edge13" class="edge">
<title>App.js&#45;&gt;views/UserEdit.js</title>
<path fill="none" stroke="#757575" d="M126.36,-506.18C127.99,-473.86 137.12,-383.23 188,-335.99 190.55,-333.62 193.34,-331.53 196.31,-329.68"/>
<polygon fill="#757575" stroke="#757575" points="197.64,-332.93 204.92,-325.24 194.43,-326.71 197.64,-332.93"/>
</g>
<!-- views/Users.js -->
<g id="node15" class="node">
<title>views/Users.js</title>
<path fill="none" stroke="#c6c5fe" d="M309.83,-926.49C309.83,-926.49 222.17,-926.49 222.17,-926.49 218.33,-926.49 214.5,-922.66 214.5,-918.82 214.5,-918.82 214.5,-911.16 214.5,-911.16 214.5,-907.32 218.33,-903.49 222.17,-903.49 222.17,-903.49 309.83,-903.49 309.83,-903.49 313.67,-903.49 317.5,-907.32 317.5,-911.16 317.5,-911.16 317.5,-918.82 317.5,-918.82 317.5,-922.66 313.67,-926.49 309.83,-926.49"/>
<text text-anchor="middle" x="266" y="-911.29" font-family="Arial" font-size="14.00" fill="#c6c5fe">views/Users.js</text>
</g>
<!-- App.js&#45;&gt;views/Users.js -->
<g id="edge14" class="edge">
<title>App.js&#45;&gt;views/Users.js</title>
<path fill="none" stroke="#757575" d="M127.08,-529.93C130.99,-569.52 146.41,-699.63 188,-797.99 203.42,-834.48 230.4,-871.9 247.97,-894.3"/>
<polygon fill="#757575" stroke="#757575" points="245.17,-896.4 254.15,-902.02 250.64,-892.02 245.17,-896.4"/>
</g>
<!-- components/fields/input/ControlledAutocomplete.js -->
<g id="node19" class="node">
<title>components/fields/input/ControlledAutocomplete.js</title>
<path fill="none" stroke="#cfffac" d="M693.33,-327.49C693.33,-327.49 387.67,-327.49 387.67,-327.49 383.83,-327.49 380,-323.66 380,-319.82 380,-319.82 380,-312.16 380,-312.16 380,-308.32 383.83,-304.49 387.67,-304.49 387.67,-304.49 693.33,-304.49 693.33,-304.49 697.17,-304.49 701,-308.32 701,-312.16 701,-312.16 701,-319.82 701,-319.82 701,-323.66 697.17,-327.49 693.33,-327.49"/>
<text text-anchor="middle" x="540.5" y="-312.29" font-family="Arial" font-size="14.00" fill="#cfffac">components/fields/input/ControlledAutocomplete.js</text>
</g>
<!-- views/GatewayAdd.js&#45;&gt;components/fields/input/ControlledAutocomplete.js -->
<g id="edge37" class="edge">
<title>views/GatewayAdd.js&#45;&gt;components/fields/input/ControlledAutocomplete.js</title>
<path fill="none" stroke="#757575" d="M329.98,-427.1C335.04,-424.61 339.8,-421.61 344,-417.99 374.14,-392 348.1,-359.79 380,-335.99 381.01,-335.24 382.03,-334.51 383.06,-333.8"/>
<polygon fill="#757575" stroke="#757575" points="384.69,-336.91 391.4,-328.71 381.04,-330.93 384.69,-336.91"/>
</g>
<!-- components/fields/input/ControlledTextField.js -->
<g id="node20" class="node">
<title>components/fields/input/ControlledTextField.js</title>
<path fill="none" stroke="#cfffac" d="M678.83,-286.49C678.83,-286.49 402.17,-286.49 402.17,-286.49 398.33,-286.49 394.5,-282.66 394.5,-278.82 394.5,-278.82 394.5,-271.16 394.5,-271.16 394.5,-267.32 398.33,-263.49 402.17,-263.49 402.17,-263.49 678.83,-263.49 678.83,-263.49 682.67,-263.49 686.5,-267.32 686.5,-271.16 686.5,-271.16 686.5,-278.82 686.5,-278.82 686.5,-282.66 682.67,-286.49 678.83,-286.49"/>
<text text-anchor="middle" x="540.5" y="-271.29" font-family="Arial" font-size="14.00" fill="#cfffac">components/fields/input/ControlledTextField.js</text>
</g>
<!-- views/GatewayAdd.js&#45;&gt;components/fields/input/ControlledTextField.js -->
<g id="edge38" class="edge">
<title>views/GatewayAdd.js&#45;&gt;components/fields/input/ControlledTextField.js</title>
<path fill="none" stroke="#757575" d="M331.61,-427.07C336.13,-424.58 340.34,-421.58 344,-417.99 384.65,-378.09 336.63,-331.92 380,-294.99 381.53,-293.69 383.11,-292.44 384.72,-291.24"/>
<polygon fill="#757575" stroke="#757575" points="386.58,-294.21 393.05,-285.83 382.76,-288.34 386.58,-294.21"/>
</g>
<!-- hooks/useContent.js -->
<g id="node29" class="node">
<title>hooks/useContent.js</title>
<path fill="none" stroke="#c6c5fe" d="M894.33,-546.49C894.33,-546.49 770.67,-546.49 770.67,-546.49 766.83,-546.49 763,-542.66 763,-538.82 763,-538.82 763,-531.16 763,-531.16 763,-527.32 766.83,-523.49 770.67,-523.49 770.67,-523.49 894.33,-523.49 894.33,-523.49 898.17,-523.49 902,-527.32 902,-531.16 902,-531.16 902,-538.82 902,-538.82 902,-542.66 898.17,-546.49 894.33,-546.49"/>
<text text-anchor="middle" x="832.5" y="-531.29" font-family="Arial" font-size="14.00" fill="#c6c5fe">hooks/useContent.js</text>
</g>
<!-- views/GatewayAdd.js&#45;&gt;hooks/useContent.js -->
<g id="edge42" class="edge">
<title>views/GatewayAdd.js&#45;&gt;hooks/useContent.js</title>
<path fill="none" stroke="#757575" d="M339.12,-430.35C426.78,-422.36 578.19,-416.67 701,-453.99 722.87,-460.64 773.98,-494.71 805.35,-516.49"/>
<polygon fill="#757575" stroke="#757575" points="803.34,-519.36 813.54,-522.22 807.35,-513.62 803.34,-519.36"/>
</g>
<!-- config/roles.js -->
<g id="node34" class="node">
<title>config/roles.js</title>
<path fill="none" stroke="#cfffac" d="M582.33,-486.49C582.33,-486.49 498.67,-486.49 498.67,-486.49 494.83,-486.49 491,-482.66 491,-478.82 491,-478.82 491,-471.16 491,-471.16 491,-467.32 494.83,-463.49 498.67,-463.49 498.67,-463.49 582.33,-463.49 582.33,-463.49 586.17,-463.49 590,-467.32 590,-471.16 590,-471.16 590,-478.82 590,-478.82 590,-482.66 586.17,-486.49 582.33,-486.49"/>
<text text-anchor="middle" x="540.5" y="-471.29" font-family="Arial" font-size="14.00" fill="#cfffac">config/roles.js</text>
</g>
<!-- views/GatewayAdd.js&#45;&gt;config/roles.js -->
<g id="edge39" class="edge">
<title>views/GatewayAdd.js&#45;&gt;config/roles.js</title>
<path fill="none" stroke="#757575" d="M339.31,-448.54C382.98,-454.31 437.98,-461.58 479.28,-467.04"/>
<polygon fill="#757575" stroke="#757575" points="478.67,-470.49 489.04,-468.33 479.59,-463.55 478.67,-470.49"/>
</g>
<!-- containers/Layout.js -->
<g id="node35" class="node">
<title>containers/Layout.js</title>
<path fill="none" stroke="#c6c5fe" d="M601.33,-607.49C601.33,-607.49 479.67,-607.49 479.67,-607.49 475.83,-607.49 472,-603.66 472,-599.82 472,-599.82 472,-592.16 472,-592.16 472,-588.32 475.83,-584.49 479.67,-584.49 479.67,-584.49 601.33,-584.49 601.33,-584.49 605.17,-584.49 609,-588.32 609,-592.16 609,-592.16 609,-599.82 609,-599.82 609,-603.66 605.17,-607.49 601.33,-607.49"/>
<text text-anchor="middle" x="540.5" y="-592.29" font-family="Arial" font-size="14.00" fill="#c6c5fe">containers/Layout.js</text>
</g>
<!-- views/GatewayAdd.js&#45;&gt;containers/Layout.js -->
<g id="edge40" class="edge">
<title>views/GatewayAdd.js&#45;&gt;containers/Layout.js</title>
<path fill="none" stroke="#757575" d="M284.52,-450.82C300.59,-462 324.76,-479.59 344,-496.99 361.49,-512.82 360.43,-522.82 380,-535.99 410.29,-556.39 448.46,-571.07 479.86,-580.8"/>
<polygon fill="#757575" stroke="#757575" points="478.63,-584.08 489.21,-583.6 480.64,-577.38 478.63,-584.08"/>
</g>
<!-- containers/withRole.js -->
<g id="node36" class="node">
<title>containers/withRole.js</title>
<path fill="none" stroke="#c6c5fe" d="M606.83,-368.49C606.83,-368.49 474.17,-368.49 474.17,-368.49 470.33,-368.49 466.5,-364.66 466.5,-360.82 466.5,-360.82 466.5,-353.16 466.5,-353.16 466.5,-349.32 470.33,-345.49 474.17,-345.49 474.17,-345.49 606.83,-345.49 606.83,-345.49 610.67,-345.49 614.5,-349.32 614.5,-353.16 614.5,-353.16 614.5,-360.82 614.5,-360.82 614.5,-364.66 610.67,-368.49 606.83,-368.49"/>
<text text-anchor="middle" x="540.5" y="-353.29" font-family="Arial" font-size="14.00" fill="#c6c5fe">containers/withRole.js</text>
</g>
<!-- views/GatewayAdd.js&#45;&gt;containers/withRole.js -->
<g id="edge41" class="edge">
<title>views/GatewayAdd.js&#45;&gt;containers/withRole.js</title>
<path fill="none" stroke="#757575" d="M311.87,-427.05C322.43,-424.16 333.63,-421.02 344,-417.99 394.58,-403.21 452.13,-385.1 491.62,-372.46"/>
<polygon fill="#757575" stroke="#757575" points="492.61,-375.82 501.06,-369.43 490.47,-369.15 492.61,-375.82"/>
</g>
<!-- components/control&#45;panel/ControlPanel.js -->
<g id="node16" class="node">
<title>components/control&#45;panel/ControlPanel.js</title>
<path fill="none" stroke="#c6c5fe" d="M666.83,-648.49C666.83,-648.49 414.17,-648.49 414.17,-648.49 410.33,-648.49 406.5,-644.66 406.5,-640.82 406.5,-640.82 406.5,-633.16 406.5,-633.16 406.5,-629.32 410.33,-625.49 414.17,-625.49 414.17,-625.49 666.83,-625.49 666.83,-625.49 670.67,-625.49 674.5,-629.32 674.5,-633.16 674.5,-633.16 674.5,-640.82 674.5,-640.82 674.5,-644.66 670.67,-648.49 666.83,-648.49"/>
<text text-anchor="middle" x="540.5" y="-633.29" font-family="Arial" font-size="14.00" fill="#c6c5fe">components/control&#45;panel/ControlPanel.js</text>
</g>
<!-- views/GatewayDetail.js&#45;&gt;components/control&#45;panel/ControlPanel.js -->
<g id="edge43" class="edge">
<title>views/GatewayDetail.js&#45;&gt;components/control&#45;panel/ControlPanel.js</title>
<path fill="none" stroke="#757575" d="M344.36,-651.31C360.23,-650.15 377.43,-648.89 394.81,-647.61"/>
<polygon fill="#757575" stroke="#757575" points="395.02,-651.1 404.74,-646.88 394.51,-644.12 395.02,-651.1"/>
</g>
<!-- views/GatewayDetail.js&#45;&gt;hooks/useContent.js -->
<g id="edge47" class="edge">
<title>views/GatewayDetail.js&#45;&gt;hooks/useContent.js</title>
<path fill="none" stroke="#757575" d="M344.48,-666.85C453.26,-679.05 644.3,-694.02 701,-656.99 734.32,-635.23 708.67,-602.95 737,-574.99 747.31,-564.82 760.59,-557.08 773.93,-551.24"/>
<polygon fill="#757575" stroke="#757575" points="775.2,-554.5 783.17,-547.53 772.59,-548.01 775.2,-554.5"/>
</g>
<!-- config/constants.js -->
<g id="node33" class="node">
<title>config/constants.js</title>
<path fill="none" stroke="#cfffac" d="M888.83,-768.49C888.83,-768.49 776.17,-768.49 776.17,-768.49 772.33,-768.49 768.5,-764.66 768.5,-760.82 768.5,-760.82 768.5,-753.16 768.5,-753.16 768.5,-749.32 772.33,-745.49 776.17,-745.49 776.17,-745.49 888.83,-745.49 888.83,-745.49 892.67,-745.49 896.5,-749.32 896.5,-753.16 896.5,-753.16 896.5,-760.82 896.5,-760.82 896.5,-764.66 892.67,-768.49 888.83,-768.49"/>
<text text-anchor="middle" x="832.5" y="-753.29" font-family="Arial" font-size="14.00" fill="#cfffac">config/constants.js</text>
</g>
<!-- views/GatewayDetail.js&#45;&gt;config/constants.js -->
<g id="edge44" class="edge">
<title>views/GatewayDetail.js&#45;&gt;config/constants.js</title>
<path fill="none" stroke="#757575" d="M278.55,-668.71C297.65,-687.22 337.93,-722.58 380,-736.99 506.7,-780.41 665.18,-774.82 756.72,-766.27"/>
<polygon fill="#757575" stroke="#757575" points="756.97,-769.76 766.59,-765.31 756.29,-762.8 756.97,-769.76"/>
</g>
<!-- views/GatewayDetail.js&#45;&gt;config/roles.js -->
<g id="edge45" class="edge">
<title>views/GatewayDetail.js&#45;&gt;config/roles.js</title>
<path fill="none" stroke="#757575" d="M281.72,-645.08C298.58,-630.82 326.16,-605.52 344,-578.99 366.66,-545.28 347.55,-519.42 380,-494.99 408.02,-473.9 446.97,-468.69 479.37,-468.86"/>
<polygon fill="#757575" stroke="#757575" points="478.93,-472.35 489.01,-469.09 479.1,-465.36 478.93,-472.35"/>
</g>
<!-- views/GatewayDetail.js&#45;&gt;containers/Layout.js -->
<g id="edge46" class="edge">
<title>views/GatewayDetail.js&#45;&gt;containers/Layout.js</title>
<path fill="none" stroke="#757575" d="M294.33,-645.12C316.9,-635.8 349.97,-623.23 380,-615.99 405.88,-609.76 434.62,-605.39 460.49,-602.37"/>
<polygon fill="#757575" stroke="#757575" points="460.71,-605.87 470.26,-601.28 459.94,-598.91 460.71,-605.87"/>
</g>
<!-- hooks/useGraphData.js -->
<g id="node37" class="node">
<title>hooks/useGraphData.js</title>
<path fill="none" stroke="#c6c5fe" d="M611.83,-728.49C611.83,-728.49 469.17,-728.49 469.17,-728.49 465.33,-728.49 461.5,-724.66 461.5,-720.82 461.5,-720.82 461.5,-713.16 461.5,-713.16 461.5,-709.32 465.33,-705.49 469.17,-705.49 469.17,-705.49 611.83,-705.49 611.83,-705.49 615.67,-705.49 619.5,-709.32 619.5,-713.16 619.5,-713.16 619.5,-720.82 619.5,-720.82 619.5,-724.66 615.67,-728.49 611.83,-728.49"/>
<text text-anchor="middle" x="540.5" y="-713.29" font-family="Arial" font-size="14.00" fill="#c6c5fe">hooks/useGraphData.js</text>
</g>
<!-- views/GatewayDetail.js&#45;&gt;hooks/useGraphData.js -->
<g id="edge48" class="edge">
<title>views/GatewayDetail.js&#45;&gt;hooks/useGraphData.js</title>
<path fill="none" stroke="#757575" d="M302.31,-668.91C324.43,-676.06 353.65,-684.91 380,-690.99 402.55,-696.2 427.13,-700.75 450.1,-704.53"/>
<polygon fill="#757575" stroke="#757575" points="449.3,-707.94 459.73,-706.08 450.41,-701.03 449.3,-707.94"/>
</g>
<!-- utils/helpers.js -->
<g id="node39" class="node">
<title>utils/helpers.js</title>
<path fill="none" stroke="#c6c5fe" d="M583.83,-808.49C583.83,-808.49 497.17,-808.49 497.17,-808.49 493.33,-808.49 489.5,-804.66 489.5,-800.82 489.5,-800.82 489.5,-793.16 489.5,-793.16 489.5,-789.32 493.33,-785.49 497.17,-785.49 497.17,-785.49 583.83,-785.49 583.83,-785.49 587.67,-785.49 591.5,-789.32 591.5,-793.16 591.5,-793.16 591.5,-800.82 591.5,-800.82 591.5,-804.66 587.67,-808.49 583.83,-808.49"/>
<text text-anchor="middle" x="540.5" y="-793.29" font-family="Arial" font-size="14.00" fill="#c6c5fe">utils/helpers.js</text>
</g>
<!-- views/GatewayDetail.js&#45;&gt;utils/helpers.js -->
<g id="edge49" class="edge">
<title>views/GatewayDetail.js&#45;&gt;utils/helpers.js</title>
<path fill="none" stroke="#757575" d="M274.71,-668.72C291,-692.44 331.44,-745.98 380,-770.99 409.97,-786.43 446.94,-793.1 477.74,-795.84"/>
<polygon fill="#757575" stroke="#757575" points="477.47,-799.33 487.71,-796.59 478,-792.35 477.47,-799.33"/>
</g>
<!-- views/GatewayEdit.js&#45;&gt;components/fields/input/ControlledAutocomplete.js -->
<g id="edge50" class="edge">
<title>views/GatewayEdit.js&#45;&gt;components/fields/input/ControlledAutocomplete.js</title>
<path fill="none" stroke="#757575" d="M325.32,-386.06C331.87,-383.58 338.24,-380.59 344,-376.99 364.57,-364.15 358.58,-347.35 380,-335.99 382.54,-334.65 385.12,-333.38 387.76,-332.18"/>
<polygon fill="#757575" stroke="#757575" points="388.81,-335.53 396.72,-328.49 386.14,-329.06 388.81,-335.53"/>
</g>
<!-- views/GatewayEdit.js&#45;&gt;components/fields/input/ControlledTextField.js -->
<g id="edge51" class="edge">
<title>views/GatewayEdit.js&#45;&gt;components/fields/input/ControlledTextField.js</title>
<path fill="none" stroke="#757575" d="M329.98,-386.1C335.04,-383.61 339.8,-380.61 344,-376.99 374.14,-351 348.1,-318.79 380,-294.99 381.4,-293.95 382.82,-292.94 384.27,-291.98"/>
<polygon fill="#757575" stroke="#757575" points="386.04,-295 392.87,-286.9 382.48,-288.97 386.04,-295"/>
</g>
<!-- views/GatewayEdit.js&#45;&gt;hooks/useContent.js -->
<g id="edge55" class="edge">
<title>views/GatewayEdit.js&#45;&gt;hooks/useContent.js</title>
<path fill="none" stroke="#757575" d="M338.76,-394.58C445.55,-390.69 640.25,-388.58 701,-420.99 724.53,-433.54 717.83,-450.46 737,-468.99 756.36,-487.71 781.47,-504.98 800.94,-517.16"/>
<polygon fill="#757575" stroke="#757575" points="798.9,-520.01 809.26,-522.25 802.56,-514.04 798.9,-520.01"/>
</g>
<!-- views/GatewayEdit.js&#45;&gt;config/roles.js -->
<g id="edge52" class="edge">
<title>views/GatewayEdit.js&#45;&gt;config/roles.js</title>
<path fill="none" stroke="#757575" d="M313.89,-409.93C323.84,-412.54 334.28,-415.31 344,-417.99 393.43,-431.61 449.6,-448.09 489,-459.82"/>
<polygon fill="#757575" stroke="#757575" points="487.87,-463.14 498.46,-462.64 489.87,-456.43 487.87,-463.14"/>
</g>
<!-- views/GatewayEdit.js&#45;&gt;containers/Layout.js -->
<g id="edge53" class="edge">
<title>views/GatewayEdit.js&#45;&gt;containers/Layout.js</title>
<path fill="none" stroke="#757575" d="M333,-409.9C336.99,-412.16 340.71,-414.84 344,-417.99 383.58,-455.94 342.48,-496.01 380,-535.99 401.27,-558.66 431.95,-572.83 460.73,-581.66"/>
<polygon fill="#757575" stroke="#757575" points="459.62,-584.98 470.19,-584.37 461.55,-578.25 459.62,-584.98"/>
</g>
<!-- views/GatewayEdit.js&#45;&gt;containers/withRole.js -->
<g id="edge54" class="edge">
<title>views/GatewayEdit.js&#45;&gt;containers/withRole.js</title>
<path fill="none" stroke="#757575" d="M338.95,-387.17C374.53,-381.81 417.71,-375.32 454.87,-369.73"/>
<polygon fill="#757575" stroke="#757575" points="455.33,-373.2 464.7,-368.25 454.29,-366.27 455.33,-373.2"/>
</g>
<!-- views/Gateways.js&#45;&gt;contexts/userContext.js -->
<g id="edge59" class="edge">
<title>views/Gateways.js&#45;&gt;contexts/userContext.js</title>
<path fill="none" stroke="#757575" d="M281.58,-789.79C302.09,-805.54 341.3,-832.65 380,-842.99 517.83,-879.81 559.76,-863.11 701,-842.99 944.47,-808.31 1210.85,-664.05 1298.36,-613.55"/>
<polygon fill="#757575" stroke="#757575" points="1299.94,-616.68 1306.82,-608.63 1296.42,-610.63 1299.94,-616.68"/>
</g>
<!-- views/Gateways.js&#45;&gt;hooks/useContent.js -->
<g id="edge60" class="edge">
<title>views/Gateways.js&#45;&gt;hooks/useContent.js</title>
<path fill="none" stroke="#757575" d="M293.29,-789.87C315.78,-799.34 349.3,-811.84 380,-816.99 450.35,-828.79 646.98,-863.57 701,-816.99 783.35,-745.98 670.41,-660.96 737,-574.99 744.93,-564.75 755.98,-557.1 767.73,-551.4"/>
<polygon fill="#757575" stroke="#757575" points="769.01,-554.66 776.8,-547.47 766.23,-548.23 769.01,-554.66"/>
</g>
<!-- components/table/index.js -->
<g id="node30" class="node">
<title>components/table/index.js</title>
<path fill="none" stroke="#c6c5fe" d="M619.33,-926.49C619.33,-926.49 461.67,-926.49 461.67,-926.49 457.83,-926.49 454,-922.66 454,-918.82 454,-918.82 454,-911.16 454,-911.16 454,-907.32 457.83,-903.49 461.67,-903.49 461.67,-903.49 619.33,-903.49 619.33,-903.49 623.17,-903.49 627,-907.32 627,-911.16 627,-911.16 627,-918.82 627,-918.82 627,-922.66 623.17,-926.49 619.33,-926.49"/>
<text text-anchor="middle" x="540.5" y="-911.29" font-family="Arial" font-size="14.00" fill="#c6c5fe">components/table/index.js</text>
</g>
<!-- views/Gateways.js&#45;&gt;components/table/index.js -->
<g id="edge56" class="edge">
<title>views/Gateways.js&#45;&gt;components/table/index.js</title>
<path fill="none" stroke="#757575" d="M275.04,-789.77C291.64,-813.04 332.17,-864.75 380,-888.99 399.18,-898.71 421.17,-904.94 442.57,-908.9"/>
<polygon fill="#757575" stroke="#757575" points="441.76,-912.31 452.2,-910.52 442.92,-905.41 441.76,-912.31"/>
</g>
<!-- views/Gateways.js&#45;&gt;config/roles.js -->
<g id="edge57" class="edge">
<title>views/Gateways.js&#45;&gt;config/roles.js</title>
<path fill="none" stroke="#757575" d="M279.02,-766.14C296.25,-748.41 327.7,-713.18 344,-676.99 377.87,-601.81 319.67,-551.2 380,-494.99 406.12,-470.65 445.96,-465.65 479.29,-466.72"/>
<polygon fill="#757575" stroke="#757575" points="479.09,-470.22 489.26,-467.26 479.46,-463.23 479.09,-470.22"/>
</g>
<!-- views/Gateways.js&#45;&gt;containers/Layout.js -->
<g id="edge58" class="edge">
<title>views/Gateways.js&#45;&gt;containers/Layout.js</title>
<path fill="none" stroke="#757575" d="M276.72,-766.2C291.81,-747.7 321.47,-710.47 344,-676.99 361.57,-650.87 353.69,-633.27 380,-615.99 403.47,-600.57 433.14,-594.19 460.5,-592.11"/>
<polygon fill="#757575" stroke="#757575" points="460.36,-595.63 470.15,-591.57 459.97,-588.64 460.36,-595.63"/>
</g>
<!-- views/Login.js&#45;&gt;containers/WholePageLoader.js -->
<g id="edge63" class="edge">
<title>views/Login.js&#45;&gt;containers/WholePageLoader.js</title>
<path fill="none" stroke="#757575" d="M880.28,-1139.04C905.13,-1132.72 936.21,-1124.87 964,-1117.99 979.07,-1114.26 995.35,-1110.3 1010.57,-1106.61"/>
<polygon fill="#757575" stroke="#757575" points="1011.06,-1110.09 1019.96,-1104.34 1009.42,-1103.29 1011.06,-1110.09"/>
</g>
<!-- views/Login.js&#45;&gt;contexts/userContext.js -->
<g id="edge64" class="edge">
<title>views/Login.js&#45;&gt;contexts/userContext.js</title>
<path fill="none" stroke="#757575" d="M883.27,-1148.45C973.93,-1143.38 1158.73,-1130.84 1181,-1111.99 1259.42,-1045.6 1311.85,-710.4 1324.85,-619.03"/>
<polygon fill="#757575" stroke="#757575" points="1328.29,-619.69 1326.21,-609.3 1321.36,-618.72 1328.29,-619.69"/>
</g>
<!-- views/Login.js&#45;&gt;utils/api.js -->
<g id="edge65" class="edge">
<title>views/Login.js&#45;&gt;utils/api.js</title>
<path fill="none" stroke="#757575" d="M848.59,-1139.15C871.94,-1121.46 918.85,-1088.34 964,-1070.99 982.56,-1063.86 1003.93,-1059.21 1022.71,-1056.21"/>
<polygon fill="#757575" stroke="#757575" points="1023.13,-1059.69 1032.52,-1054.77 1022.11,-1052.76 1023.13,-1059.69"/>
</g>
<!-- components/fields/button/index.js -->
<g id="node18" class="node">
<title>components/fields/button/index.js</title>
<path fill="none" stroke="#c6c5fe" d="M1173.33,-1224.49C1173.33,-1224.49 971.67,-1224.49 971.67,-1224.49 967.83,-1224.49 964,-1220.66 964,-1216.82 964,-1216.82 964,-1209.16 964,-1209.16 964,-1205.32 967.83,-1201.49 971.67,-1201.49 971.67,-1201.49 1173.33,-1201.49 1173.33,-1201.49 1177.17,-1201.49 1181,-1205.32 1181,-1209.16 1181,-1209.16 1181,-1216.82 1181,-1216.82 1181,-1220.66 1177.17,-1224.49 1173.33,-1224.49"/>
<text text-anchor="middle" x="1072.5" y="-1209.29" font-family="Arial" font-size="14.00" fill="#c6c5fe">components/fields/button/index.js</text>
</g>
<!-- views/Login.js&#45;&gt;components/fields/button/index.js -->
<g id="edge61" class="edge">
<title>views/Login.js&#45;&gt;components/fields/button/index.js</title>
<path fill="none" stroke="#757575" d="M867.82,-1162.93C893.96,-1171.74 930.97,-1183.6 964,-1191.99 973.37,-1194.37 983.27,-1196.64 993.1,-1198.73"/>
<polygon fill="#757575" stroke="#757575" points="992.16,-1202.11 1002.67,-1200.72 993.59,-1195.26 992.16,-1202.11"/>
</g>
<!-- components/fields/input/index.js -->
<g id="node24" class="node">
<title>components/fields/input/index.js</title>
<path fill="none" stroke="#c6c5fe" d="M1169.33,-1183.49C1169.33,-1183.49 975.67,-1183.49 975.67,-1183.49 971.83,-1183.49 968,-1179.66 968,-1175.82 968,-1175.82 968,-1168.16 968,-1168.16 968,-1164.32 971.83,-1160.49 975.67,-1160.49 975.67,-1160.49 1169.33,-1160.49 1169.33,-1160.49 1173.17,-1160.49 1177,-1164.32 1177,-1168.16 1177,-1168.16 1177,-1175.82 1177,-1175.82 1177,-1179.66 1173.17,-1183.49 1169.33,-1183.49"/>
<text text-anchor="middle" x="1072.5" y="-1168.29" font-family="Arial" font-size="14.00" fill="#c6c5fe">components/fields/input/index.js</text>
</g>
<!-- views/Login.js&#45;&gt;components/fields/input/index.js -->
<g id="edge62" class="edge">
<title>views/Login.js&#45;&gt;components/fields/input/index.js</title>
<path fill="none" stroke="#757575" d="M883.39,-1155.39C904.77,-1157.28 930.69,-1159.57 956.37,-1161.83"/>
<polygon fill="#757575" stroke="#757575" points="955.97,-1165.31 966.23,-1162.7 956.58,-1158.34 955.97,-1165.31"/>
</g>
<!-- views/UserAdd.js&#45;&gt;components/fields/input/ControlledAutocomplete.js -->
<g id="edge66" class="edge">
<title>views/UserAdd.js&#45;&gt;components/fields/input/ControlledAutocomplete.js</title>
<path fill="none" stroke="#757575" d="M326.41,-345.27C343.66,-342.05 362.55,-338.7 380,-335.99 394.76,-333.7 410.31,-331.49 425.69,-329.43"/>
<polygon fill="#757575" stroke="#757575" points="425.89,-332.93 435.34,-328.16 424.97,-325.99 425.89,-332.93"/>
</g>
<!-- views/UserAdd.js&#45;&gt;components/fields/input/ControlledTextField.js -->
<g id="edge67" class="edge">
<title>views/UserAdd.js&#45;&gt;components/fields/input/ControlledTextField.js</title>
<path fill="none" stroke="#757575" d="M325.32,-345.06C331.87,-342.58 338.24,-339.59 344,-335.99 364.57,-323.15 358.58,-306.35 380,-294.99 382.54,-293.65 385.12,-292.38 387.76,-291.18"/>
<polygon fill="#757575" stroke="#757575" points="388.81,-294.53 396.72,-287.49 386.14,-288.06 388.81,-294.53"/>
</g>
<!-- views/UserAdd.js&#45;&gt;hooks/useContent.js -->
<g id="edge71" class="edge">
<title>views/UserAdd.js&#45;&gt;hooks/useContent.js</title>
<path fill="none" stroke="#757575" d="M326.14,-346.87C332.62,-344.07 338.75,-340.52 344,-335.99 374.14,-310 346.68,-275.76 380,-253.99 439.72,-214.99 640.87,-215.62 701,-253.99 793.32,-312.91 821.34,-455.85 828.94,-511.9"/>
<polygon fill="#757575" stroke="#757575" points="825.43,-512.06 830.15,-521.55 832.38,-511.19 825.43,-512.06"/>
</g>
<!-- views/UserAdd.js&#45;&gt;config/roles.js -->
<g id="edge68" class="edge">
<title>views/UserAdd.js&#45;&gt;config/roles.js</title>
<path fill="none" stroke="#757575" d="M319.24,-368.97C327.61,-371.34 336.11,-374.03 344,-376.99 404.91,-399.88 471.89,-436.04 509.51,-457.45"/>
<polygon fill="#757575" stroke="#757575" points="507.58,-460.38 518,-462.32 511.07,-454.31 507.58,-460.38"/>
</g>
<!-- views/UserAdd.js&#45;&gt;containers/Layout.js -->
<g id="edge69" class="edge">
<title>views/UserAdd.js&#45;&gt;containers/Layout.js</title>
<path fill="none" stroke="#757575" d="M326.24,-365.03C332.86,-367.95 339,-371.83 344,-376.99 394.42,-429.02 332.4,-481.37 380,-535.99 400.6,-559.63 431.47,-573.97 460.58,-582.68"/>
<polygon fill="#757575" stroke="#757575" points="459.6,-586.03 470.17,-585.34 461.47,-579.29 459.6,-586.03"/>
</g>
<!-- views/UserAdd.js&#45;&gt;containers/withRole.js -->
<g id="edge70" class="edge">
<title>views/UserAdd.js&#45;&gt;containers/withRole.js</title>
<path fill="none" stroke="#757575" d="M326.46,-356.99C363.97,-356.99 413,-356.99 454.56,-356.99"/>
<polygon fill="#757575" stroke="#757575" points="454.56,-360.49 464.56,-356.99 454.56,-353.49 454.56,-360.49"/>
</g>
<!-- views/UserDetail.js&#45;&gt;components/control&#45;panel/ControlPanel.js -->
<g id="edge72" class="edge">
<title>views/UserDetail.js&#45;&gt;components/control&#45;panel/ControlPanel.js</title>
<path fill="none" stroke="#757575" d="M331.41,-529.85C335.92,-532.12 340.19,-534.8 344,-537.99 373.29,-562.48 349.25,-593.35 380,-615.99 384.99,-619.67 390.31,-622.86 395.87,-625.63"/>
<polygon fill="#757575" stroke="#757575" points="394.18,-628.71 404.74,-629.56 397.01,-622.31 394.18,-628.71"/>
</g>
<!-- views/UserDetail.js&#45;&gt;hooks/useContent.js -->
<g id="edge76" class="edge">
<title>views/UserDetail.js&#45;&gt;hooks/useContent.js</title>
<path fill="none" stroke="#757575" d="M330.73,-529.95C346.76,-532.45 363.96,-534.72 380,-535.99 509.64,-546.25 660.87,-542.79 751.27,-539.09"/>
<polygon fill="#757575" stroke="#757575" points="751.17,-542.6 761.01,-538.68 750.87,-535.6 751.17,-542.6"/>
</g>
<!-- views/UserDetail.js&#45;&gt;config/roles.js -->
<g id="edge73" class="edge">
<title>views/UserDetail.js&#45;&gt;config/roles.js</title>
<path fill="none" stroke="#757575" d="M321.45,-506.04C339.97,-502.2 360.84,-498.14 380,-494.99 412.84,-489.6 449.7,-484.89 479.71,-481.4"/>
<polygon fill="#757575" stroke="#757575" points="479.81,-484.91 489.35,-480.29 479.01,-477.95 479.81,-484.91"/>
</g>
<!-- views/UserDetail.js&#45;&gt;containers/Layout.js -->
<g id="edge74" class="edge">
<title>views/UserDetail.js&#45;&gt;containers/Layout.js</title>
<path fill="none" stroke="#757575" d="M325.31,-529.96C331.79,-532.21 338.15,-534.87 344,-537.99 362.88,-548.07 360.67,-560.79 380,-569.99 404.83,-581.81 434.02,-588.38 460.6,-592.01"/>
<polygon fill="#757575" stroke="#757575" points="459.95,-595.45 470.31,-593.2 460.81,-588.5 459.95,-595.45"/>
</g>
<!-- views/UserDetail.js&#45;&gt;containers/withRole.js -->
<g id="edge75" class="edge">
<title>views/UserDetail.js&#45;&gt;containers/withRole.js</title>
<path fill="none" stroke="#757575" d="M287.04,-506.15C334.48,-478.12 453.87,-407.59 509.77,-374.56"/>
<polygon fill="#757575" stroke="#757575" points="511.3,-377.72 518.13,-369.62 507.74,-371.69 511.3,-377.72"/>
</g>
<!-- views/UserEdit.js&#45;&gt;contexts/userContext.js -->
<g id="edge82" class="edge">
<title>views/UserEdit.js&#45;&gt;contexts/userContext.js</title>
<path fill="none" stroke="#757575" d="M290.15,-304.12C306.75,-294.71 328.78,-280.29 344,-262.99 367.11,-236.72 350.14,-211.21 380,-192.99 464.98,-141.14 1129.98,-181.1 1181,-217.99 1301.08,-304.8 1323.07,-504.32 1327.1,-572.58"/>
<polygon fill="#757575" stroke="#757575" points="1323.6,-572.76 1327.6,-582.57 1330.59,-572.41 1323.6,-572.76"/>
</g>
<!-- views/UserEdit.js&#45;&gt;components/fields/input/ControlledAutocomplete.js -->
<g id="edge77" class="edge">
<title>views/UserEdit.js&#45;&gt;components/fields/input/ControlledAutocomplete.js</title>
<path fill="none" stroke="#757575" d="M325.79,-315.99C338.89,-315.99 353.41,-315.99 368.54,-315.99"/>
<polygon fill="#757575" stroke="#757575" points="368.15,-319.49 378.15,-315.99 368.15,-312.49 368.15,-319.49"/>
</g>
<!-- views/UserEdit.js&#45;&gt;components/fields/input/ControlledTextField.js -->
<g id="edge78" class="edge">
<title>views/UserEdit.js&#45;&gt;components/fields/input/ControlledTextField.js</title>
<path fill="none" stroke="#757575" d="M325.83,-304.38C343.23,-301.13 362.35,-297.74 380,-294.99 394.76,-292.7 410.31,-290.49 425.69,-288.43"/>
<polygon fill="#757575" stroke="#757575" points="425.89,-291.93 435.34,-287.16 424.97,-284.99 425.89,-291.93"/>
</g>
<!-- views/UserEdit.js&#45;&gt;hooks/useContent.js -->
<g id="edge83" class="edge">
<title>views/UserEdit.js&#45;&gt;hooks/useContent.js</title>
<path fill="none" stroke="#757575" d="M275.99,-304.31C293.32,-282.86 333.77,-237.84 380,-220.99 447.02,-196.56 641.66,-181.4 701,-220.99 802.32,-288.6 825.09,-451.19 830.11,-511.75"/>
<polygon fill="#757575" stroke="#757575" points="826.61,-511.82 830.82,-521.54 833.59,-511.31 826.61,-511.82"/>
</g>
<!-- views/UserEdit.js&#45;&gt;config/roles.js -->
<g id="edge79" class="edge">
<title>views/UserEdit.js&#45;&gt;config/roles.js</title>
<path fill="none" stroke="#757575" d="M325.72,-327.26C332.12,-329.64 338.36,-332.51 344,-335.99 364.65,-348.71 361.46,-361.36 380,-376.99 419.63,-410.41 471.79,-440.23 505.49,-457.96"/>
<polygon fill="#757575" stroke="#757575" points="503.49,-460.86 513.97,-462.37 506.71,-454.65 503.49,-460.86"/>
</g>
<!-- views/UserEdit.js&#45;&gt;containers/Layout.js -->
<g id="edge80" class="edge">
<title>views/UserEdit.js&#45;&gt;containers/Layout.js</title>
<path fill="none" stroke="#757575" d="M325.7,-323.48C332.57,-326.47 338.93,-330.52 344,-335.99 405.39,-402.24 322.19,-466.6 380,-535.99 400.24,-560.29 431.38,-574.75 460.79,-583.36"/>
<polygon fill="#757575" stroke="#757575" points="459.49,-586.64 470.06,-585.88 461.33,-579.88 459.49,-586.64"/>
</g>
<!-- views/UserEdit.js&#45;&gt;containers/withRole.js -->
<g id="edge81" class="edge">
<title>views/UserEdit.js&#45;&gt;containers/withRole.js</title>
<path fill="none" stroke="#757575" d="M325.86,-326.92C343.27,-330.01 362.38,-333.27 380,-335.99 404.31,-339.74 430.76,-343.4 455.01,-346.58"/>
<polygon fill="#757575" stroke="#757575" points="454.48,-350.04 464.85,-347.86 455.39,-343.1 454.48,-350.04"/>
</g>
<!-- views/Users.js&#45;&gt;contexts/userContext.js -->
<g id="edge88" class="edge">
<title>views/Users.js&#45;&gt;contexts/userContext.js</title>
<path fill="none" stroke="#757575" d="M288.28,-926.84C310.41,-938.43 346.45,-955.29 380,-961.99 619.13,-1009.74 702.34,-1027.42 928,-934.99 1105.91,-862.12 1262.52,-678.75 1311.88,-616.81"/>
<polygon fill="#757575" stroke="#757575" points="1314.49,-619.15 1317.94,-609.13 1309,-614.82 1314.49,-619.15"/>
</g>
<!-- views/Users.js&#45;&gt;hooks/useContent.js -->
<g id="edge89" class="edge">
<title>views/Users.js&#45;&gt;hooks/useContent.js</title>
<path fill="none" stroke="#757575" d="M317.92,-925.87C420.33,-946.42 646.12,-984.65 701,-934.99 760.61,-881.04 689.31,-639.72 737,-574.99 744.52,-564.79 755.16,-557.16 766.61,-551.48"/>
<polygon fill="#757575" stroke="#757575" points="767.7,-554.82 775.43,-547.57 764.87,-548.42 767.7,-554.82"/>
</g>
<!-- views/Users.js&#45;&gt;components/table/index.js -->
<g id="edge84" class="edge">
<title>views/Users.js&#45;&gt;components/table/index.js</title>
<path fill="none" stroke="#757575" d="M317.94,-914.99C352.86,-914.99 400.3,-914.99 442.32,-914.99"/>
<polygon fill="#757575" stroke="#757575" points="442.21,-918.49 452.21,-914.99 442.21,-911.49 442.21,-918.49"/>
</g>
<!-- config/columns/users.js -->
<g id="node32" class="node">
<title>config/columns/users.js</title>
<path fill="none" stroke="#cfffac" d="M611.83,-1044.49C611.83,-1044.49 469.17,-1044.49 469.17,-1044.49 465.33,-1044.49 461.5,-1040.66 461.5,-1036.82 461.5,-1036.82 461.5,-1029.16 461.5,-1029.16 461.5,-1025.32 465.33,-1021.49 469.17,-1021.49 469.17,-1021.49 611.83,-1021.49 611.83,-1021.49 615.67,-1021.49 619.5,-1025.32 619.5,-1029.16 619.5,-1029.16 619.5,-1036.82 619.5,-1036.82 619.5,-1040.66 615.67,-1044.49 611.83,-1044.49"/>
<text text-anchor="middle" x="540.5" y="-1029.29" font-family="Arial" font-size="14.00" fill="#cfffac">config/columns/users.js</text>
</g>
<!-- views/Users.js&#45;&gt;config/columns/users.js -->
<g id="edge85" class="edge">
<title>views/Users.js&#45;&gt;config/columns/users.js</title>
<path fill="none" stroke="#757575" d="M277.5,-926.89C296.01,-947.02 336.62,-987.49 380,-1006.99 401.76,-1016.77 426.66,-1022.93 450.22,-1026.78"/>
<polygon fill="#757575" stroke="#757575" points="449.38,-1030.19 459.79,-1028.22 450.43,-1023.27 449.38,-1030.19"/>
</g>
<!-- views/Users.js&#45;&gt;config/roles.js -->
<g id="edge86" class="edge">
<title>views/Users.js&#45;&gt;config/roles.js</title>
<path fill="none" stroke="#757575" d="M277.64,-903.06C294.87,-882.99 328.48,-840.48 344,-797.99 367.26,-734.3 332.21,-543.09 380,-494.99 405.36,-469.47 445.63,-464.58 479.36,-466.02"/>
<polygon fill="#757575" stroke="#757575" points="478.81,-469.49 489.01,-466.63 479.25,-462.5 478.81,-469.49"/>
</g>
<!-- views/Users.js&#45;&gt;containers/Layout.js -->
<g id="edge87" class="edge">
<title>views/Users.js&#45;&gt;containers/Layout.js</title>
<path fill="none" stroke="#757575" d="M277.01,-903.25C293.62,-883.11 326.77,-840.07 344,-797.99 375.25,-721.69 319.67,-672.2 380,-615.99 401.36,-596.09 431.9,-589.11 460.54,-587.82"/>
<polygon fill="#757575" stroke="#757575" points="460.39,-591.33 470.31,-587.62 460.24,-584.33 460.39,-591.33"/>
</g>
<!-- components/control&#45;panel/ControlPanel.js&#45;&gt;contexts/userContext.js -->
<g id="edge15" class="edge">
<title>components/control&#45;panel/ControlPanel.js&#45;&gt;contexts/userContext.js</title>
<path fill="none" stroke="#757575" d="M674.93,-636.58C804.46,-635.25 1006.52,-630.69 1181,-615.99 1200.09,-614.38 1220.51,-612.02 1239.86,-609.48"/>
<polygon fill="#757575" stroke="#757575" points="1240.16,-612.97 1249.61,-608.17 1239.23,-606.03 1240.16,-612.97"/>
</g>
<!-- components/fields/button/Button.js -->
<g id="node17" class="node">
<title>components/fields/button/Button.js</title>
<path fill="none" stroke="#cfffac" d="M1433.33,-1224.49C1433.33,-1224.49 1224.67,-1224.49 1224.67,-1224.49 1220.83,-1224.49 1217,-1220.66 1217,-1216.82 1217,-1216.82 1217,-1209.16 1217,-1209.16 1217,-1205.32 1220.83,-1201.49 1224.67,-1201.49 1224.67,-1201.49 1433.33,-1201.49 1433.33,-1201.49 1437.17,-1201.49 1441,-1205.32 1441,-1209.16 1441,-1209.16 1441,-1216.82 1441,-1216.82 1441,-1220.66 1437.17,-1224.49 1433.33,-1224.49"/>
<text text-anchor="middle" x="1329" y="-1209.29" font-family="Arial" font-size="14.00" fill="#cfffac">components/fields/button/Button.js</text>
</g>
<!-- components/fields/button/index.js&#45;&gt;components/fields/button/Button.js -->
<g id="edge16" class="edge">
<title>components/fields/button/index.js&#45;&gt;components/fields/button/Button.js</title>
<path fill="none" stroke="#757575" d="M1181.43,-1212.99C1189.35,-1212.99 1197.37,-1212.99 1205.37,-1212.99"/>
<polygon fill="#757575" stroke="#757575" points="1205.13,-1216.49 1215.13,-1212.99 1205.13,-1209.49 1205.13,-1216.49"/>
</g>
<!-- components/fields/input/FluidInput/FluidInput.js -->
<g id="node21" class="node">
<title>components/fields/input/FluidInput/FluidInput.js</title>
<path fill="none" stroke="#cfffac" d="M2076.33,-1183.49C2076.33,-1183.49 1792.67,-1183.49 1792.67,-1183.49 1788.83,-1183.49 1785,-1179.66 1785,-1175.82 1785,-1175.82 1785,-1168.16 1785,-1168.16 1785,-1164.32 1788.83,-1160.49 1792.67,-1160.49 1792.67,-1160.49 2076.33,-1160.49 2076.33,-1160.49 2080.17,-1160.49 2084,-1164.32 2084,-1168.16 2084,-1168.16 2084,-1175.82 2084,-1175.82 2084,-1179.66 2080.17,-1183.49 2076.33,-1183.49"/>
<text text-anchor="middle" x="1934.5" y="-1168.29" font-family="Arial" font-size="14.00" fill="#cfffac">components/fields/input/FluidInput/FluidInput.js</text>
</g>
<!-- components/fields/input/FluidInput/index.js -->
<g id="node22" class="node">
<title>components/fields/input/FluidInput/index.js</title>
<path fill="none" stroke="#c6c5fe" d="M1741.33,-1183.49C1741.33,-1183.49 1484.67,-1183.49 1484.67,-1183.49 1480.83,-1183.49 1477,-1179.66 1477,-1175.82 1477,-1175.82 1477,-1168.16 1477,-1168.16 1477,-1164.32 1480.83,-1160.49 1484.67,-1160.49 1484.67,-1160.49 1741.33,-1160.49 1741.33,-1160.49 1745.17,-1160.49 1749,-1164.32 1749,-1168.16 1749,-1168.16 1749,-1175.82 1749,-1175.82 1749,-1179.66 1745.17,-1183.49 1741.33,-1183.49"/>
<text text-anchor="middle" x="1613" y="-1168.29" font-family="Arial" font-size="14.00" fill="#c6c5fe">components/fields/input/FluidInput/index.js</text>
</g>
<!-- components/fields/input/FluidInput/index.js&#45;&gt;components/fields/input/FluidInput/FluidInput.js -->
<g id="edge17" class="edge">
<title>components/fields/input/FluidInput/index.js&#45;&gt;components/fields/input/FluidInput/FluidInput.js</title>
<path fill="none" stroke="#757575" d="M1749.5,-1171.99C1757.42,-1171.99 1765.42,-1171.99 1773.42,-1171.99"/>
<polygon fill="#757575" stroke="#757575" points="1773.21,-1175.49 1783.21,-1171.99 1773.21,-1168.49 1773.21,-1175.49"/>
</g>
<!-- components/fields/input/Input.js -->
<g id="node23" class="node">
<title>components/fields/input/Input.js</title>
<path fill="none" stroke="#c6c5fe" d="M1424.33,-1183.49C1424.33,-1183.49 1233.67,-1183.49 1233.67,-1183.49 1229.83,-1183.49 1226,-1179.66 1226,-1175.82 1226,-1175.82 1226,-1168.16 1226,-1168.16 1226,-1164.32 1229.83,-1160.49 1233.67,-1160.49 1233.67,-1160.49 1424.33,-1160.49 1424.33,-1160.49 1428.17,-1160.49 1432,-1164.32 1432,-1168.16 1432,-1168.16 1432,-1175.82 1432,-1175.82 1432,-1179.66 1428.17,-1183.49 1424.33,-1183.49"/>
<text text-anchor="middle" x="1329" y="-1168.29" font-family="Arial" font-size="14.00" fill="#c6c5fe">components/fields/input/Input.js</text>
</g>
<!-- components/fields/input/Input.js&#45;&gt;components/fields/input/FluidInput/index.js -->
<g id="edge18" class="edge">
<title>components/fields/input/Input.js&#45;&gt;components/fields/input/FluidInput/index.js</title>
<path fill="none" stroke="#757575" d="M1432.21,-1171.99C1443.08,-1171.99 1454.29,-1171.99 1465.55,-1171.99"/>
<polygon fill="#757575" stroke="#757575" points="1465.3,-1175.49 1475.3,-1171.99 1465.3,-1168.49 1465.3,-1175.49"/>
</g>
<!-- components/fields/input/index.js&#45;&gt;components/fields/input/Input.js -->
<g id="edge19" class="edge">
<title>components/fields/input/index.js&#45;&gt;components/fields/input/Input.js</title>
<path fill="none" stroke="#757575" d="M1177.38,-1171.99C1189.59,-1171.99 1202.09,-1171.99 1214.42,-1171.99"/>
<polygon fill="#757575" stroke="#757575" points="1214.17,-1175.49 1224.17,-1171.99 1214.17,-1168.49 1214.17,-1175.49"/>
</g>
<!-- components/loader/Loader.js -->
<g id="node25" class="node">
<title>components/loader/Loader.js</title>
<path fill="none" stroke="#c6c5fe" d="M920.33,-708.49C920.33,-708.49 744.67,-708.49 744.67,-708.49 740.83,-708.49 737,-704.66 737,-700.82 737,-700.82 737,-693.16 737,-693.16 737,-689.32 740.83,-685.49 744.67,-685.49 744.67,-685.49 920.33,-685.49 920.33,-685.49 924.17,-685.49 928,-689.32 928,-693.16 928,-693.16 928,-700.82 928,-700.82 928,-704.66 924.17,-708.49 920.33,-708.49"/>
<text text-anchor="middle" x="832.5" y="-693.29" font-family="Arial" font-size="14.00" fill="#c6c5fe">components/loader/Loader.js</text>
</g>
<!-- components/loader/Loader.js&#45;&gt;containers/WholePageLoader.js -->
<g id="edge20" class="edge">
<title>components/loader/Loader.js&#45;&gt;containers/WholePageLoader.js</title>
<path fill="none" stroke="#757575" d="M889.58,-708.99C904.22,-714.79 918.53,-723.35 928,-735.99 1017.81,-855.81 862.76,-960.66 964,-1070.99 964.6,-1071.65 965.22,-1072.29 965.85,-1072.91"/>
<polygon fill="#757575" stroke="#757575" points="963.58,-1075.58 973.55,-1079.16 967.99,-1070.14 963.58,-1075.58"/>
</g>
<!-- components/sidebar/Sidebar.js -->
<g id="node26" class="node">
<title>components/sidebar/Sidebar.js</title>
<path fill="none" stroke="#c6c5fe" d="M1165.83,-607.49C1165.83,-607.49 979.17,-607.49 979.17,-607.49 975.33,-607.49 971.5,-603.66 971.5,-599.82 971.5,-599.82 971.5,-592.16 971.5,-592.16 971.5,-588.32 975.33,-584.49 979.17,-584.49 979.17,-584.49 1165.83,-584.49 1165.83,-584.49 1169.67,-584.49 1173.5,-588.32 1173.5,-592.16 1173.5,-592.16 1173.5,-599.82 1173.5,-599.82 1173.5,-603.66 1169.67,-607.49 1165.83,-607.49"/>
<text text-anchor="middle" x="1072.5" y="-592.29" font-family="Arial" font-size="14.00" fill="#c6c5fe">components/sidebar/Sidebar.js</text>
</g>
<!-- components/sidebar/Sidebar.js&#45;&gt;contexts/userContext.js -->
<g id="edge21" class="edge">
<title>components/sidebar/Sidebar.js&#45;&gt;contexts/userContext.js</title>
<path fill="none" stroke="#757575" d="M1173.72,-595.99C1195.2,-595.99 1217.75,-595.99 1238.78,-595.99"/>
<polygon fill="#757575" stroke="#757575" points="1238.78,-599.49 1248.78,-595.99 1238.78,-592.49 1238.78,-599.49"/>
</g>
<!-- components/sidebar/index.js -->
<g id="node27" class="node">
<title>components/sidebar/index.js</title>
<path fill="none" stroke="#c6c5fe" d="M918.83,-607.49C918.83,-607.49 746.17,-607.49 746.17,-607.49 742.33,-607.49 738.5,-603.66 738.5,-599.82 738.5,-599.82 738.5,-592.16 738.5,-592.16 738.5,-588.32 742.33,-584.49 746.17,-584.49 746.17,-584.49 918.83,-584.49 918.83,-584.49 922.67,-584.49 926.5,-588.32 926.5,-592.16 926.5,-592.16 926.5,-599.82 926.5,-599.82 926.5,-603.66 922.67,-607.49 918.83,-607.49"/>
<text text-anchor="middle" x="832.5" y="-592.29" font-family="Arial" font-size="14.00" fill="#c6c5fe">components/sidebar/index.js</text>
</g>
<!-- components/sidebar/index.js&#45;&gt;components/sidebar/Sidebar.js -->
<g id="edge22" class="edge">
<title>components/sidebar/index.js&#45;&gt;components/sidebar/Sidebar.js</title>
<path fill="none" stroke="#757575" d="M926.88,-595.99C937.71,-595.99 948.83,-595.99 959.87,-595.99"/>
<polygon fill="#757575" stroke="#757575" points="959.81,-599.49 969.81,-595.99 959.81,-592.49 959.81,-599.49"/>
</g>
<!-- components/status/Status.js -->
<g id="node28" class="node">
<title>components/status/Status.js</title>
<path fill="none" stroke="#c6c5fe" d="M625.83,-527.49C625.83,-527.49 455.17,-527.49 455.17,-527.49 451.33,-527.49 447.5,-523.66 447.5,-519.82 447.5,-519.82 447.5,-512.16 447.5,-512.16 447.5,-508.32 451.33,-504.49 455.17,-504.49 455.17,-504.49 625.83,-504.49 625.83,-504.49 629.67,-504.49 633.5,-508.32 633.5,-512.16 633.5,-512.16 633.5,-519.82 633.5,-519.82 633.5,-523.66 629.67,-527.49 625.83,-527.49"/>
<text text-anchor="middle" x="540.5" y="-512.29" font-family="Arial" font-size="14.00" fill="#c6c5fe">components/status/Status.js</text>
</g>
<!-- components/status/Status.js&#45;&gt;hooks/useContent.js -->
<g id="edge23" class="edge">
<title>components/status/Status.js&#45;&gt;hooks/useContent.js</title>
<path fill="none" stroke="#757575" d="M633.66,-522.03C671.53,-524.51 714.98,-527.36 751.5,-529.75"/>
<polygon fill="#757575" stroke="#757575" points="750.88,-533.22 761.08,-530.38 751.33,-526.23 750.88,-533.22"/>
</g>
<!-- hooks/useContent.js&#45;&gt;contexts/appContext.js -->
<g id="edge29" class="edge">
<title>hooks/useContent.js&#45;&gt;contexts/appContext.js</title>
<path fill="none" stroke="#757575" d="M843.12,-523.02C879.46,-477.83 1008.58,-317.24 1054.85,-259.7"/>
<polygon fill="#757575" stroke="#757575" points="1057.53,-261.95 1061.07,-251.97 1052.07,-257.57 1057.53,-261.95"/>
</g>
<!-- hooks/useContent.js&#45;&gt;utils/api.js -->
<g id="edge30" class="edge">
<title>hooks/useContent.js&#45;&gt;utils/api.js</title>
<path fill="none" stroke="#757575" d="M883.24,-546.86C899.42,-552.91 916.22,-561.87 928,-574.99 1051.46,-712.51 1068.78,-952.97 1071.15,-1027.98"/>
<polygon fill="#757575" stroke="#757575" points="1067.64,-1027.86 1071.39,-1037.77 1074.64,-1027.69 1067.64,-1027.86"/>
</g>
<!-- components/table/table.js -->
<g id="node31" class="node">
<title>components/table/table.js</title>
<path fill="none" stroke="#cfffac" d="M909.83,-926.49C909.83,-926.49 755.17,-926.49 755.17,-926.49 751.33,-926.49 747.5,-922.66 747.5,-918.82 747.5,-918.82 747.5,-911.16 747.5,-911.16 747.5,-907.32 751.33,-903.49 755.17,-903.49 755.17,-903.49 909.83,-903.49 909.83,-903.49 913.67,-903.49 917.5,-907.32 917.5,-911.16 917.5,-911.16 917.5,-918.82 917.5,-918.82 917.5,-922.66 913.67,-926.49 909.83,-926.49"/>
<text text-anchor="middle" x="832.5" y="-911.29" font-family="Arial" font-size="14.00" fill="#cfffac">components/table/table.js</text>
</g>
<!-- components/table/index.js&#45;&gt;components/table/table.js -->
<g id="edge24" class="edge">
<title>components/table/index.js&#45;&gt;components/table/table.js</title>
<path fill="none" stroke="#757575" d="M627.33,-914.99C661.54,-914.99 701.06,-914.99 736.16,-914.99"/>
<polygon fill="#757575" stroke="#757575" points="735.87,-918.49 745.87,-914.99 735.87,-911.49 735.87,-918.49"/>
</g>
<!-- containers/Layout.js&#45;&gt;components/loader/Loader.js -->
<g id="edge25" class="edge">
<title>containers/Layout.js&#45;&gt;components/loader/Loader.js</title>
<path fill="none" stroke="#757575" d="M609.33,-598.06C638.24,-600.57 671.93,-605.7 701,-615.99 741.83,-630.44 783.39,-659.17 808.31,-678.23"/>
<polygon fill="#757575" stroke="#757575" points="806.08,-680.93 816.12,-684.33 810.39,-675.42 806.08,-680.93"/>
</g>
<!-- containers/Layout.js&#45;&gt;components/sidebar/index.js -->
<g id="edge26" class="edge">
<title>containers/Layout.js&#45;&gt;components/sidebar/index.js</title>
<path fill="none" stroke="#757575" d="M609.49,-595.99C644.39,-595.99 687.66,-595.99 726.71,-595.99"/>
<polygon fill="#757575" stroke="#757575" points="726.62,-599.49 736.62,-595.99 726.62,-592.49 726.62,-599.49"/>
</g>
<!-- containers/withRole.js&#45;&gt;contexts/appContext.js -->
<g id="edge27" class="edge">
<title>containers/withRole.js&#45;&gt;contexts/appContext.js</title>
<path fill="none" stroke="#757575" d="M614.86,-349.28C642.04,-345.92 673.04,-341.47 701,-335.99 817.13,-313.24 950.87,-275.24 1021.6,-254.19"/>
<polygon fill="#757575" stroke="#757575" points="1022.36,-257.61 1030.94,-251.39 1020.36,-250.91 1022.36,-257.61"/>
</g>
<!-- containers/withRole.js&#45;&gt;contexts/userContext.js -->
<g id="edge28" class="edge">
<title>containers/withRole.js&#45;&gt;contexts/userContext.js</title>
<path fill="none" stroke="#757575" d="M610.61,-368.97C638.82,-374.35 671.65,-381.23 701,-388.99 924.79,-448.15 1185.65,-542.77 1285.85,-580.11"/>
<polygon fill="#757575" stroke="#757575" points="1284.43,-583.31 1295.02,-583.53 1286.87,-576.75 1284.43,-583.31"/>
</g>
<!-- hooks/useGraphData.js&#45;&gt;hooks/useContent.js -->
<g id="edge32" class="edge">
<title>hooks/useGraphData.js&#45;&gt;hooks/useContent.js</title>
<path fill="none" stroke="#757575" d="M619.72,-720.66C648.24,-718.09 678.88,-710.23 701,-690.99 741.73,-655.57 700.77,-615.01 737,-574.99 746.34,-564.67 758.78,-556.93 771.56,-551.15"/>
<polygon fill="#757575" stroke="#757575" points="772.51,-554.54 780.42,-547.49 769.84,-548.07 772.51,-554.54"/>
</g>
<!-- hooks/useGraphData.js&#45;&gt;config/constants.js -->
<g id="edge31" class="edge">
<title>hooks/useGraphData.js&#45;&gt;config/constants.js</title>
<path fill="none" stroke="#757575" d="M619.98,-727.82C662.54,-733.69 714.87,-740.9 756.83,-746.69"/>
<polygon fill="#757575" stroke="#757575" points="756.21,-750.14 766.59,-748.04 757.16,-743.2 756.21,-750.14"/>
</g>
<!-- index.js -->
<g id="node38" class="node">
<title>index.js</title>
<path fill="none" stroke="#c6c5fe" d="M54.33,-94.49C54.33,-94.49 7.67,-94.49 7.67,-94.49 3.83,-94.49 0,-90.66 0,-86.82 0,-86.82 0,-79.16 0,-79.16 0,-75.32 3.83,-71.49 7.67,-71.49 7.67,-71.49 54.33,-71.49 54.33,-71.49 58.17,-71.49 62,-75.32 62,-79.16 62,-79.16 62,-86.82 62,-86.82 62,-90.66 58.17,-94.49 54.33,-94.49"/>
<text text-anchor="middle" x="31" y="-79.29" font-family="Arial" font-size="14.00" fill="#c6c5fe">index.js</text>
</g>
<!-- index.js&#45;&gt;App.js -->
<g id="edge33" class="edge">
<title>index.js&#45;&gt;App.js</title>
<path fill="none" stroke="#757575" d="M34.46,-94.63C46.83,-153.11 102.28,-415.29 119.13,-494.96"/>
<polygon fill="#757575" stroke="#757575" points="115.68,-495.58 121.18,-504.64 122.53,-494.13 115.68,-495.58"/>
</g>
<!-- index.js&#45;&gt;contexts/appContext.js -->
<g id="edge34" class="edge">
<title>index.js&#45;&gt;contexts/appContext.js</title>
<path fill="none" stroke="#757575" d="M62.16,-82.99C106.58,-82.99 192.19,-82.99 265,-82.99 265,-82.99 265,-82.99 541.5,-82.99 736.57,-82.99 956.18,-181.44 1038.24,-221.92"/>
<polygon fill="#757575" stroke="#757575" points="1036.58,-225.01 1047.09,-226.33 1039.7,-218.74 1036.58,-225.01"/>
</g>
<!-- index.js&#45;&gt;contexts/userContext.js -->
<g id="edge35" class="edge">
<title>index.js&#45;&gt;contexts/userContext.js</title>
<path fill="none" stroke="#757575" d="M53.09,-71.12C93.09,-49.74 183.31,-6.99 265,-6.99 265,-6.99 265,-6.99 833.5,-6.99 990.87,-6.99 1065.27,31.65 1181,-74.99 1257.24,-145.24 1311.25,-481.36 1324.72,-572.92"/>
<polygon fill="#757575" stroke="#757575" points="1321.24,-573.27 1326.13,-582.66 1328.16,-572.26 1321.24,-573.27"/>
</g>
<!-- utils/helpers.js&#45;&gt;config/constants.js -->
<g id="edge36" class="edge">
<title>utils/helpers.js&#45;&gt;config/constants.js</title>
<path fill="none" stroke="#757575" d="M591.68,-790.07C637.22,-783.79 704.97,-774.44 756.86,-767.29"/>
<polygon fill="#757575" stroke="#757575" points="757.08,-770.79 766.51,-765.96 756.12,-763.86 757.08,-770.79"/>
</g>
</g>
</svg>
