<?xml version="1.0" encoding="UTF-8" standalone="no"?>
<!DOCTYPE svg PUBLIC "-//W3C//DTD SVG 1.1//EN"
 "http://www.w3.org/Graphics/SVG/1.1/DTD/svg11.dtd">
<!-- Generated by graphviz version 7.0.6 (20230106.0513)
 -->
<!-- Title: G Pages: 1 -->
<svg width="1580pt" height="1439pt"
 viewBox="0.00 0.00 1580.20 1438.50" xmlns="http://www.w3.org/2000/svg" xmlns:xlink="http://www.w3.org/1999/xlink">
<g id="graph0" class="graph" transform="scale(1 1) rotate(0) translate(21.6 1416.9)">
<title>G</title>
<polygon fill="#111111" stroke="none" points="-21.6,21.6 -21.6,-1416.9 1558.6,-1416.9 1558.6,21.6 -21.6,21.6"/>
<!-- App.js -->
<g id="node1" class="node">
<title>App.js</title>
<path fill="none" stroke="#c6c5fe" d="M144.33,-849.25C144.33,-849.25 105.67,-849.25 105.67,-849.25 101.83,-849.25 98,-845.41 98,-841.58 98,-841.58 98,-833.91 98,-833.91 98,-830.08 101.83,-826.25 105.67,-826.25 105.67,-826.25 144.33,-826.25 144.33,-826.25 148.17,-826.25 152,-830.08 152,-833.91 152,-833.91 152,-841.58 152,-841.58 152,-845.41 148.17,-849.25 144.33,-849.25"/>
<text text-anchor="middle" x="125" y="-834.05" font-family="Arial" font-size="14.00" fill="#c6c5fe">App.js</text>
</g>
<!-- containers/WholePageLoader.js -->
<g id="node2" class="node">
<title>containers/WholePageLoader.js</title>
<path fill="none" stroke="#cfffac" d="M1194.33,-1207.25C1194.33,-1207.25 1001.67,-1207.25 1001.67,-1207.25 997.83,-1207.25 994,-1203.41 994,-1199.58 994,-1199.58 994,-1191.91 994,-1191.91 994,-1188.08 997.83,-1184.25 1001.67,-1184.25 1001.67,-1184.25 1194.33,-1184.25 1194.33,-1184.25 1198.17,-1184.25 1202,-1188.08 1202,-1191.91 1202,-1191.91 1202,-1199.58 1202,-1199.58 1202,-1203.41 1198.17,-1207.25 1194.33,-1207.25"/>
<text text-anchor="middle" x="1098" y="-1192.05" font-family="Arial" font-size="14.00" fill="#cfffac">containers/WholePageLoader.js</text>
</g>
<!-- App.js&#45;&gt;containers/WholePageLoader.js -->
<g id="edge1" class="edge">
<title>App.js&#45;&gt;containers/WholePageLoader.js</title>
<path fill="none" stroke="#757575" d="M126.31,-849.65C128.01,-903.9 137.97,-1126.98 188,-1169.75 246.97,-1220.16 751.25,-1208.49 982.27,-1200.35"/>
<polygon fill="#757575" stroke="#757575" points="982.35,-1203.85 992.22,-1199.99 982.1,-1196.85 982.35,-1203.85"/>
</g>
<!-- contexts/appContext.js -->
<g id="node3" class="node">
<title>contexts/appContext.js</title>
<path fill="none" stroke="#cfffac" d="M1415.33,-226.25C1415.33,-226.25 1277.67,-226.25 1277.67,-226.25 1273.83,-226.25 1270,-222.41 1270,-218.58 1270,-218.58 1270,-210.91 1270,-210.91 1270,-207.08 1273.83,-203.25 1277.67,-203.25 1277.67,-203.25 1415.33,-203.25 1415.33,-203.25 1419.17,-203.25 1423,-207.08 1423,-210.91 1423,-210.91 1423,-218.58 1423,-218.58 1423,-222.41 1419.17,-226.25 1415.33,-226.25"/>
<text text-anchor="middle" x="1346.5" y="-211.05" font-family="Arial" font-size="14.00" fill="#cfffac">contexts/appContext.js</text>
</g>
<!-- App.js&#45;&gt;contexts/appContext.js -->
<g id="edge2" class="edge">
<title>App.js&#45;&gt;contexts/appContext.js</title>
<path fill="none" stroke="#757575" d="M126.15,-825.86C127.38,-736.06 137.16,-166.28 188,-111.75 295.83,3.91 381.38,-56.75 539.5,-56.75 539.5,-56.75 539.5,-56.75 833.5,-56.75 1012.11,-56.75 1070.44,-32.59 1232,-108.75 1273.77,-128.44 1310.45,-169.22 1330.16,-194.07"/>
<polygon fill="#757575" stroke="#757575" points="1327.27,-196.06 1336.15,-201.83 1332.81,-191.78 1327.27,-196.06"/>
</g>
<!-- contexts/userContext.js -->
<g id="node4" class="node">
<title>contexts/userContext.js</title>
<path fill="none" stroke="#c6c5fe" d="M1417.33,-1053.25C1417.33,-1053.25 1275.67,-1053.25 1275.67,-1053.25 1271.83,-1053.25 1268,-1049.41 1268,-1045.58 1268,-1045.58 1268,-1037.91 1268,-1037.91 1268,-1034.08 1271.83,-1030.25 1275.67,-1030.25 1275.67,-1030.25 1417.33,-1030.25 1417.33,-1030.25 1421.17,-1030.25 1425,-1034.08 1425,-1037.91 1425,-1037.91 1425,-1045.58 1425,-1045.58 1425,-1049.41 1421.17,-1053.25 1417.33,-1053.25"/>
<text text-anchor="middle" x="1346.5" y="-1038.05" font-family="Arial" font-size="14.00" fill="#c6c5fe">contexts/userContext.js</text>
</g>
<!-- App.js&#45;&gt;contexts/userContext.js -->
<g id="edge3" class="edge">
<title>App.js&#45;&gt;contexts/userContext.js</title>
<path fill="none" stroke="#757575" d="M128.83,-849.62C135.49,-875.67 154.21,-938.82 188,-980.75 297.51,-1116.63 364.99,-1155.75 539.5,-1155.75 539.5,-1155.75 539.5,-1155.75 833.5,-1155.75 1011.05,-1155.75 1065.79,-1190.17 1232,-1127.75 1269.87,-1113.52 1305.7,-1082.35 1326.62,-1061.7"/>
<polygon fill="#757575" stroke="#757575" points="1329.04,-1064.23 1333.58,-1054.66 1324.06,-1059.32 1329.04,-1064.23"/>
</g>
<!-- hooks/useStyles.js -->
<g id="node5" class="node">
<title>hooks/useStyles.js</title>
<path fill="none" stroke="#cfffac" d="M1402.83,-502.25C1402.83,-502.25 1290.17,-502.25 1290.17,-502.25 1286.33,-502.25 1282.5,-498.41 1282.5,-494.58 1282.5,-494.58 1282.5,-486.91 1282.5,-486.91 1282.5,-483.08 1286.33,-479.25 1290.17,-479.25 1290.17,-479.25 1402.83,-479.25 1402.83,-479.25 1406.67,-479.25 1410.5,-483.08 1410.5,-486.91 1410.5,-486.91 1410.5,-494.58 1410.5,-494.58 1410.5,-498.41 1406.67,-502.25 1402.83,-502.25"/>
<text text-anchor="middle" x="1346.5" y="-487.05" font-family="Arial" font-size="14.00" fill="#cfffac">hooks/useStyles.js</text>
</g>
<!-- App.js&#45;&gt;hooks/useStyles.js -->
<g id="edge4" class="edge">
<title>App.js&#45;&gt;hooks/useStyles.js</title>
<path fill="none" stroke="#757575" d="M125.94,-825.96C125.77,-752.18 127.66,-353.93 188,-251.75 275,-104.42 368.4,-94.75 539.5,-94.75 539.5,-94.75 539.5,-94.75 833.5,-94.75 1038.22,-94.75 1081.76,-186.69 1232,-325.75 1278.77,-369.04 1316.75,-434.91 1334.55,-468.85"/>
<polygon fill="#757575" stroke="#757575" points="1331.42,-470.42 1339.1,-477.71 1337.64,-467.21 1331.42,-470.42"/>
</g>
<!-- views/GatewayAdd.js -->
<g id="node6" class="node">
<title>views/GatewayAdd.js</title>
<path fill="none" stroke="#c6c5fe" d="M331.33,-890.25C331.33,-890.25 200.67,-890.25 200.67,-890.25 196.83,-890.25 193,-886.41 193,-882.58 193,-882.58 193,-874.91 193,-874.91 193,-871.08 196.83,-867.25 200.67,-867.25 200.67,-867.25 331.33,-867.25 331.33,-867.25 335.17,-867.25 339,-871.08 339,-874.91 339,-874.91 339,-882.58 339,-882.58 339,-886.41 335.17,-890.25 331.33,-890.25"/>
<text text-anchor="middle" x="266" y="-875.05" font-family="Arial" font-size="14.00" fill="#c6c5fe">views/GatewayAdd.js</text>
</g>
<!-- App.js&#45;&gt;views/GatewayAdd.js -->
<g id="edge5" class="edge">
<title>App.js&#45;&gt;views/GatewayAdd.js</title>
<path fill="none" stroke="#757575" d="M152.47,-846.58C163.43,-850.16 176.29,-854.26 188,-857.75 194.71,-859.74 201.77,-861.77 208.79,-863.74"/>
<polygon fill="#757575" stroke="#757575" points="207.68,-867.06 218.25,-866.36 209.55,-860.32 207.68,-867.06"/>
</g>
<!-- views/GatewayDetail.js -->
<g id="node7" class="node">
<title>views/GatewayDetail.js</title>
<path fill="none" stroke="#c6c5fe" d="M336.33,-284.25C336.33,-284.25 195.67,-284.25 195.67,-284.25 191.83,-284.25 188,-280.41 188,-276.58 188,-276.58 188,-268.91 188,-268.91 188,-265.08 191.83,-261.25 195.67,-261.25 195.67,-261.25 336.33,-261.25 336.33,-261.25 340.17,-261.25 344,-265.08 344,-268.91 344,-268.91 344,-276.58 344,-276.58 344,-280.41 340.17,-284.25 336.33,-284.25"/>
<text text-anchor="middle" x="266" y="-269.05" font-family="Arial" font-size="14.00" fill="#c6c5fe">views/GatewayDetail.js</text>
</g>
<!-- App.js&#45;&gt;views/GatewayDetail.js -->
<g id="edge6" class="edge">
<title>App.js&#45;&gt;views/GatewayDetail.js</title>
<path fill="none" stroke="#757575" d="M127.65,-825.93C133.77,-782.89 156.49,-630.56 188,-507.75 208.4,-428.26 241.26,-336.47 256.6,-295.06"/>
<polygon fill="#757575" stroke="#757575" points="259.86,-296.34 260.08,-285.74 253.3,-293.89 259.86,-296.34"/>
</g>
<!-- views/GatewayEdit.js -->
<g id="node8" class="node">
<title>views/GatewayEdit.js</title>
<path fill="none" stroke="#c6c5fe" d="M330.83,-849.25C330.83,-849.25 201.17,-849.25 201.17,-849.25 197.33,-849.25 193.5,-845.41 193.5,-841.58 193.5,-841.58 193.5,-833.91 193.5,-833.91 193.5,-830.08 197.33,-826.25 201.17,-826.25 201.17,-826.25 330.83,-826.25 330.83,-826.25 334.67,-826.25 338.5,-830.08 338.5,-833.91 338.5,-833.91 338.5,-841.58 338.5,-841.58 338.5,-845.41 334.67,-849.25 330.83,-849.25"/>
<text text-anchor="middle" x="266" y="-834.05" font-family="Arial" font-size="14.00" fill="#c6c5fe">views/GatewayEdit.js</text>
</g>
<!-- App.js&#45;&gt;views/GatewayEdit.js -->
<g id="edge7" class="edge">
<title>App.js&#45;&gt;views/GatewayEdit.js</title>
<path fill="none" stroke="#757575" d="M152.47,-837.75C161.18,-837.75 171.38,-837.75 182.02,-837.75"/>
<polygon fill="#757575" stroke="#757575" points="181.7,-841.25 191.7,-837.75 181.7,-834.25 181.7,-841.25"/>
</g>
<!-- views/Gateways.js -->
<g id="node9" class="node">
<title>views/Gateways.js</title>
<path fill="none" stroke="#c6c5fe" d="M322.33,-675.25C322.33,-675.25 209.67,-675.25 209.67,-675.25 205.83,-675.25 202,-671.41 202,-667.58 202,-667.58 202,-659.91 202,-659.91 202,-656.08 205.83,-652.25 209.67,-652.25 209.67,-652.25 322.33,-652.25 322.33,-652.25 326.17,-652.25 330,-656.08 330,-659.91 330,-659.91 330,-667.58 330,-667.58 330,-671.41 326.17,-675.25 322.33,-675.25"/>
<text text-anchor="middle" x="266" y="-660.05" font-family="Arial" font-size="14.00" fill="#c6c5fe">views/Gateways.js</text>
</g>
<!-- App.js&#45;&gt;views/Gateways.js -->
<g id="edge8" class="edge">
<title>App.js&#45;&gt;views/Gateways.js</title>
<path fill="none" stroke="#757575" d="M134.94,-826.01C146.9,-810.35 168.84,-781.8 188,-757.75 208.36,-732.2 232.26,-703.17 247.97,-684.21"/>
<polygon fill="#757575" stroke="#757575" points="250.51,-686.63 254.21,-676.7 245.13,-682.16 250.51,-686.63"/>
</g>
<!-- views/Login.js -->
<g id="node10" class="node">
<title>views/Login.js</title>
<path fill="none" stroke="#c6c5fe" d="M308.83,-1263.25C308.83,-1263.25 223.17,-1263.25 223.17,-1263.25 219.33,-1263.25 215.5,-1259.41 215.5,-1255.58 215.5,-1255.58 215.5,-1247.91 215.5,-1247.91 215.5,-1244.08 219.33,-1240.25 223.17,-1240.25 223.17,-1240.25 308.83,-1240.25 308.83,-1240.25 312.67,-1240.25 316.5,-1244.08 316.5,-1247.91 316.5,-1247.91 316.5,-1255.58 316.5,-1255.58 316.5,-1259.41 312.67,-1263.25 308.83,-1263.25"/>
<text text-anchor="middle" x="266" y="-1248.05" font-family="Arial" font-size="14.00" fill="#c6c5fe">views/Login.js</text>
</g>
<!-- App.js&#45;&gt;views/Login.js -->
<g id="edge9" class="edge">
<title>App.js&#45;&gt;views/Login.js</title>
<path fill="none" stroke="#757575" d="M126.64,-849.69C129.89,-906.31 146,-1147.51 188,-1207.75 195.98,-1219.19 207.96,-1228.05 220.11,-1234.72"/>
<polygon fill="#757575" stroke="#757575" points="218.41,-1237.78 228.91,-1239.13 221.54,-1231.52 218.41,-1237.78"/>
</g>
<!-- views/UserAdd.js -->
<g id="node11" class="node">
<title>views/UserAdd.js</title>
<path fill="none" stroke="#c6c5fe" d="M318.33,-931.25C318.33,-931.25 213.67,-931.25 213.67,-931.25 209.83,-931.25 206,-927.41 206,-923.58 206,-923.58 206,-915.91 206,-915.91 206,-912.08 209.83,-908.25 213.67,-908.25 213.67,-908.25 318.33,-908.25 318.33,-908.25 322.17,-908.25 326,-912.08 326,-915.91 326,-915.91 326,-923.58 326,-923.58 326,-927.41 322.17,-931.25 318.33,-931.25"/>
<text text-anchor="middle" x="266" y="-916.05" font-family="Arial" font-size="14.00" fill="#c6c5fe">views/UserAdd.js</text>
</g>
<!-- App.js&#45;&gt;views/UserAdd.js -->
<g id="edge10" class="edge">
<title>App.js&#45;&gt;views/UserAdd.js</title>
<path fill="none" stroke="#757575" d="M134.76,-849.44C145.71,-863.25 165.75,-885.95 188,-898.75 191.03,-900.49 194.2,-902.09 197.47,-903.56"/>
<polygon fill="#757575" stroke="#757575" points="196.15,-906.8 206.74,-907.27 198.75,-900.3 196.15,-906.8"/>
</g>
<!-- views/UserDetail.js -->
<g id="node12" class="node">
<title>views/UserDetail.js</title>
<path fill="none" stroke="#c6c5fe" d="M323.83,-790.25C323.83,-790.25 208.17,-790.25 208.17,-790.25 204.33,-790.25 200.5,-786.41 200.5,-782.58 200.5,-782.58 200.5,-774.91 200.5,-774.91 200.5,-771.08 204.33,-767.25 208.17,-767.25 208.17,-767.25 323.83,-767.25 323.83,-767.25 327.67,-767.25 331.5,-771.08 331.5,-774.91 331.5,-774.91 331.5,-782.58 331.5,-782.58 331.5,-786.41 327.67,-790.25 323.83,-790.25"/>
<text text-anchor="middle" x="266" y="-775.05" font-family="Arial" font-size="14.00" fill="#c6c5fe">views/UserDetail.js</text>
</g>
<!-- App.js&#45;&gt;views/UserDetail.js -->
<g id="edge11" class="edge">
<title>App.js&#45;&gt;views/UserDetail.js</title>
<path fill="none" stroke="#757575" d="M152.47,-826.51C173.51,-817.58 203.22,-804.97 226.83,-794.95"/>
<polygon fill="#757575" stroke="#757575" points="227.97,-798.27 235.8,-791.14 225.23,-791.83 227.97,-798.27"/>
</g>
<!-- views/UserEdit.js -->
<g id="node13" class="node">
<title>views/UserEdit.js</title>
<path fill="none" stroke="#c6c5fe" d="M317.83,-972.25C317.83,-972.25 214.17,-972.25 214.17,-972.25 210.33,-972.25 206.5,-968.41 206.5,-964.58 206.5,-964.58 206.5,-956.91 206.5,-956.91 206.5,-953.08 210.33,-949.25 214.17,-949.25 214.17,-949.25 317.83,-949.25 317.83,-949.25 321.67,-949.25 325.5,-953.08 325.5,-956.91 325.5,-956.91 325.5,-964.58 325.5,-964.58 325.5,-968.41 321.67,-972.25 317.83,-972.25"/>
<text text-anchor="middle" x="266" y="-957.05" font-family="Arial" font-size="14.00" fill="#c6c5fe">views/UserEdit.js</text>
</g>
<!-- App.js&#45;&gt;views/UserEdit.js -->
<g id="edge12" class="edge">
<title>App.js&#45;&gt;views/UserEdit.js</title>
<path fill="none" stroke="#757575" d="M129.85,-849.53C137.43,-870.88 156.38,-915.94 188,-939.75 190.46,-941.6 193.07,-943.29 195.79,-944.83"/>
<polygon fill="#757575" stroke="#757575" points="194.13,-947.91 204.66,-949.11 197.18,-941.61 194.13,-947.91"/>
</g>
<!-- views/Users.js -->
<g id="node14" class="node">
<title>views/Users.js</title>
<path fill="none" stroke="#c6c5fe" d="M309.83,-540.25C309.83,-540.25 222.17,-540.25 222.17,-540.25 218.33,-540.25 214.5,-536.41 214.5,-532.58 214.5,-532.58 214.5,-524.91 214.5,-524.91 214.5,-521.08 218.33,-517.25 222.17,-517.25 222.17,-517.25 309.83,-517.25 309.83,-517.25 313.67,-517.25 317.5,-521.08 317.5,-524.91 317.5,-524.91 317.5,-532.58 317.5,-532.58 317.5,-536.41 313.67,-540.25 309.83,-540.25"/>
<text text-anchor="middle" x="266" y="-525.05" font-family="Arial" font-size="14.00" fill="#c6c5fe">views/Users.js</text>
</g>
<!-- App.js&#45;&gt;views/Users.js -->
<g id="edge13" class="edge">
<title>App.js&#45;&gt;views/Users.js</title>
<path fill="none" stroke="#757575" d="M128.52,-825.88C135.4,-794.74 156.11,-708.61 188,-642.75 204.86,-607.92 231.23,-571.51 248.31,-549.48"/>
<polygon fill="#757575" stroke="#757575" points="250.85,-551.9 254.28,-541.88 245.35,-547.57 250.85,-551.9"/>
</g>
<!-- utils/api.js -->
<g id="node31" class="node">
<title>utils/api.js</title>
<path fill="none" stroke="#cfffac" d="M1529.33,-1053.25C1529.33,-1053.25 1468.67,-1053.25 1468.67,-1053.25 1464.83,-1053.25 1461,-1049.41 1461,-1045.58 1461,-1045.58 1461,-1037.91 1461,-1037.91 1461,-1034.08 1464.83,-1030.25 1468.67,-1030.25 1468.67,-1030.25 1529.33,-1030.25 1529.33,-1030.25 1533.17,-1030.25 1537,-1034.08 1537,-1037.91 1537,-1037.91 1537,-1045.58 1537,-1045.58 1537,-1049.41 1533.17,-1053.25 1529.33,-1053.25"/>
<text text-anchor="middle" x="1499" y="-1038.05" font-family="Arial" font-size="14.00" fill="#cfffac">utils/api.js</text>
</g>
<!-- contexts/userContext.js&#45;&gt;utils/api.js -->
<g id="edge28" class="edge">
<title>contexts/userContext.js&#45;&gt;utils/api.js</title>
<path fill="none" stroke="#757575" d="M1425.4,-1041.75C1433.59,-1041.75 1441.74,-1041.75 1449.46,-1041.75"/>
<polygon fill="#757575" stroke="#757575" points="1449.28,-1045.25 1459.28,-1041.75 1449.28,-1038.25 1449.28,-1045.25"/>
</g>
<!-- components/fields/input/ControlledAutocomplete.js -->
<g id="node16" class="node">
<title>components/fields/input/ControlledAutocomplete.js</title>
<path fill="none" stroke="#cfffac" d="M693.33,-972.25C693.33,-972.25 387.67,-972.25 387.67,-972.25 383.83,-972.25 380,-968.41 380,-964.58 380,-964.58 380,-956.91 380,-956.91 380,-953.08 383.83,-949.25 387.67,-949.25 387.67,-949.25 693.33,-949.25 693.33,-949.25 697.17,-949.25 701,-953.08 701,-956.91 701,-956.91 701,-964.58 701,-964.58 701,-968.41 697.17,-972.25 693.33,-972.25"/>
<text text-anchor="middle" x="540.5" y="-957.05" font-family="Arial" font-size="14.00" fill="#cfffac">components/fields/input/ControlledAutocomplete.js</text>
</g>
<!-- views/GatewayAdd.js&#45;&gt;components/fields/input/ControlledAutocomplete.js -->
<g id="edge37" class="edge">
<title>views/GatewayAdd.js&#45;&gt;components/fields/input/ControlledAutocomplete.js</title>
<path fill="none" stroke="#757575" d="M327.31,-890.62C333.16,-892.88 338.83,-895.56 344,-898.75 364.65,-911.47 358.61,-928.32 380,-939.75 383.26,-941.49 386.62,-943.11 390.04,-944.61"/>
<polygon fill="#757575" stroke="#757575" points="388.52,-947.78 399.11,-948.22 391.11,-941.27 388.52,-947.78"/>
</g>
<!-- components/fields/input/ControlledTextField.js -->
<g id="node17" class="node">
<title>components/fields/input/ControlledTextField.js</title>
<path fill="none" stroke="#cfffac" d="M678.83,-1013.25C678.83,-1013.25 402.17,-1013.25 402.17,-1013.25 398.33,-1013.25 394.5,-1009.41 394.5,-1005.58 394.5,-1005.58 394.5,-997.91 394.5,-997.91 394.5,-994.08 398.33,-990.25 402.17,-990.25 402.17,-990.25 678.83,-990.25 678.83,-990.25 682.67,-990.25 686.5,-994.08 686.5,-997.91 686.5,-997.91 686.5,-1005.58 686.5,-1005.58 686.5,-1009.41 682.67,-1013.25 678.83,-1013.25"/>
<text text-anchor="middle" x="540.5" y="-998.05" font-family="Arial" font-size="14.00" fill="#cfffac">components/fields/input/ControlledTextField.js</text>
</g>
<!-- views/GatewayAdd.js&#45;&gt;components/fields/input/ControlledTextField.js -->
<g id="edge38" class="edge">
<title>views/GatewayAdd.js&#45;&gt;components/fields/input/ControlledTextField.js</title>
<path fill="none" stroke="#757575" d="M331.85,-890.72C336.21,-892.96 340.32,-895.61 344,-898.75 374.3,-924.56 348.17,-956.85 380,-980.75 381.57,-981.93 383.18,-983.06 384.82,-984.15"/>
<polygon fill="#757575" stroke="#757575" points="382.83,-987.04 393.22,-989.09 386.38,-981 382.83,-987.04"/>
</g>
<!-- hooks/useContent.js -->
<g id="node22" class="node">
<title>hooks/useContent.js</title>
<path fill="none" stroke="#c6c5fe" d="M1159.83,-646.25C1159.83,-646.25 1036.17,-646.25 1036.17,-646.25 1032.33,-646.25 1028.5,-642.41 1028.5,-638.58 1028.5,-638.58 1028.5,-630.91 1028.5,-630.91 1028.5,-627.08 1032.33,-623.25 1036.17,-623.25 1036.17,-623.25 1159.83,-623.25 1159.83,-623.25 1163.67,-623.25 1167.5,-627.08 1167.5,-630.91 1167.5,-630.91 1167.5,-638.58 1167.5,-638.58 1167.5,-642.41 1163.67,-646.25 1159.83,-646.25"/>
<text text-anchor="middle" x="1098" y="-631.05" font-family="Arial" font-size="14.00" fill="#c6c5fe">hooks/useContent.js</text>
</g>
<!-- views/GatewayAdd.js&#45;&gt;hooks/useContent.js -->
<g id="edge42" class="edge">
<title>views/GatewayAdd.js&#45;&gt;hooks/useContent.js</title>
<path fill="none" stroke="#757575" d="M327.88,-866.78C344.73,-863.65 363.05,-860.4 380,-857.75 451.05,-846.62 641.22,-856.72 701,-816.75 727.81,-798.82 711.11,-772.98 737,-753.75 806.92,-701.79 845.37,-737.32 928,-709.75 976.63,-693.52 1030.36,-668.35 1063.9,-651.71"/>
<polygon fill="#757575" stroke="#757575" points="1065.32,-654.91 1072.7,-647.31 1062.19,-648.65 1065.32,-654.91"/>
</g>
<!-- config/roles.js -->
<g id="node28" class="node">
<title>config/roles.js</title>
<path fill="none" stroke="#cfffac" d="M582.33,-772.25C582.33,-772.25 498.67,-772.25 498.67,-772.25 494.83,-772.25 491,-768.41 491,-764.58 491,-764.58 491,-756.91 491,-756.91 491,-753.08 494.83,-749.25 498.67,-749.25 498.67,-749.25 582.33,-749.25 582.33,-749.25 586.17,-749.25 590,-753.08 590,-756.91 590,-756.91 590,-764.58 590,-764.58 590,-768.41 586.17,-772.25 582.33,-772.25"/>
<text text-anchor="middle" x="540.5" y="-757.05" font-family="Arial" font-size="14.00" fill="#cfffac">config/roles.js</text>
</g>
<!-- views/GatewayAdd.js&#45;&gt;config/roles.js -->
<g id="edge39" class="edge">
<title>views/GatewayAdd.js&#45;&gt;config/roles.js</title>
<path fill="none" stroke="#757575" d="M323.34,-866.77C330.5,-864.27 337.57,-861.3 344,-857.75 363.01,-847.26 361.63,-836.31 380,-824.75 413.69,-803.54 455.59,-787.06 487.98,-776.13"/>
<polygon fill="#757575" stroke="#757575" points="488.74,-779.57 497.14,-773.11 486.55,-772.92 488.74,-779.57"/>
</g>
<!-- containers/Layout.js -->
<g id="node29" class="node">
<title>containers/Layout.js</title>
<path fill="none" stroke="#c6c5fe" d="M601.33,-890.25C601.33,-890.25 479.67,-890.25 479.67,-890.25 475.83,-890.25 472,-886.41 472,-882.58 472,-882.58 472,-874.91 472,-874.91 472,-871.08 475.83,-867.25 479.67,-867.25 479.67,-867.25 601.33,-867.25 601.33,-867.25 605.17,-867.25 609,-871.08 609,-874.91 609,-874.91 609,-882.58 609,-882.58 609,-886.41 605.17,-890.25 601.33,-890.25"/>
<text text-anchor="middle" x="540.5" y="-875.05" font-family="Arial" font-size="14.00" fill="#c6c5fe">containers/Layout.js</text>
</g>
<!-- views/GatewayAdd.js&#45;&gt;containers/Layout.js -->
<g id="edge40" class="edge">
<title>views/GatewayAdd.js&#45;&gt;containers/Layout.js</title>
<path fill="none" stroke="#757575" d="M339.31,-878.75C376.62,-878.75 422.21,-878.75 460.45,-878.75"/>
<polygon fill="#757575" stroke="#757575" points="460.03,-882.25 470.03,-878.75 460.03,-875.25 460.03,-882.25"/>
</g>
<!-- containers/withRole.js -->
<g id="node30" class="node">
<title>containers/withRole.js</title>
<path fill="none" stroke="#c6c5fe" d="M606.83,-931.25C606.83,-931.25 474.17,-931.25 474.17,-931.25 470.33,-931.25 466.5,-927.41 466.5,-923.58 466.5,-923.58 466.5,-915.91 466.5,-915.91 466.5,-912.08 470.33,-908.25 474.17,-908.25 474.17,-908.25 606.83,-908.25 606.83,-908.25 610.67,-908.25 614.5,-912.08 614.5,-915.91 614.5,-915.91 614.5,-923.58 614.5,-923.58 614.5,-927.41 610.67,-931.25 606.83,-931.25"/>
<text text-anchor="middle" x="540.5" y="-916.05" font-family="Arial" font-size="14.00" fill="#c6c5fe">containers/withRole.js</text>
</g>
<!-- views/GatewayAdd.js&#45;&gt;containers/withRole.js -->
<g id="edge41" class="edge">
<title>views/GatewayAdd.js&#45;&gt;containers/withRole.js</title>
<path fill="none" stroke="#757575" d="M331.75,-890.72C347.52,-893.49 364.35,-896.33 380,-898.75 404.31,-902.5 430.76,-906.15 455.01,-909.33"/>
<polygon fill="#757575" stroke="#757575" points="454.48,-912.79 464.85,-910.61 455.39,-905.85 454.48,-912.79"/>
</g>
<!-- components/control&#45;panel/ControlPanel.js -->
<g id="node15" class="node">
<title>components/control&#45;panel/ControlPanel.js</title>
<path fill="none" stroke="#c6c5fe" d="M1224.33,-541.25C1224.33,-541.25 971.67,-541.25 971.67,-541.25 967.83,-541.25 964,-537.41 964,-533.58 964,-533.58 964,-525.91 964,-525.91 964,-522.08 967.83,-518.25 971.67,-518.25 971.67,-518.25 1224.33,-518.25 1224.33,-518.25 1228.17,-518.25 1232,-522.08 1232,-525.91 1232,-525.91 1232,-533.58 1232,-533.58 1232,-537.41 1228.17,-541.25 1224.33,-541.25"/>
<text text-anchor="middle" x="1098" y="-526.05" font-family="Arial" font-size="14.00" fill="#c6c5fe">components/control&#45;panel/ControlPanel.js</text>
</g>
<!-- views/GatewayDetail.js&#45;&gt;components/control&#45;panel/ControlPanel.js -->
<g id="edge43" class="edge">
<title>views/GatewayDetail.js&#45;&gt;components/control&#45;panel/ControlPanel.js</title>
<path fill="none" stroke="#757575" d="M344.31,-262.14C475.39,-248.24 744.84,-237.79 928,-353.75 995.72,-396.62 1055.66,-472.26 1082.32,-508.81"/>
<polygon fill="#757575" stroke="#757575" points="1079.38,-510.72 1088.06,-516.8 1085.06,-506.63 1079.38,-510.72"/>
</g>
<!-- views/GatewayDetail.js&#45;&gt;hooks/useContent.js -->
<g id="edge47" class="edge">
<title>views/GatewayDetail.js&#45;&gt;hooks/useContent.js</title>
<path fill="none" stroke="#757575" d="M344.49,-281.6C509.94,-301.19 886.14,-349.63 928,-389.75 980.63,-440.18 922.14,-490.08 964,-549.75 986.38,-581.66 1024.95,-604.35 1054.81,-618.21"/>
<polygon fill="#757575" stroke="#757575" points="1053.02,-621.25 1063.58,-622.13 1055.88,-614.86 1053.02,-621.25"/>
</g>
<!-- config/constants.js -->
<g id="node27" class="node">
<title>config/constants.js</title>
<path fill="none" stroke="#cfffac" d="M888.83,-184.25C888.83,-184.25 776.17,-184.25 776.17,-184.25 772.33,-184.25 768.5,-180.41 768.5,-176.58 768.5,-176.58 768.5,-168.91 768.5,-168.91 768.5,-165.08 772.33,-161.25 776.17,-161.25 776.17,-161.25 888.83,-161.25 888.83,-161.25 892.67,-161.25 896.5,-165.08 896.5,-168.91 896.5,-168.91 896.5,-176.58 896.5,-176.58 896.5,-180.41 892.67,-184.25 888.83,-184.25"/>
<text text-anchor="middle" x="832.5" y="-169.05" font-family="Arial" font-size="14.00" fill="#cfffac">config/constants.js</text>
</g>
<!-- views/GatewayDetail.js&#45;&gt;config/constants.js -->
<g id="edge44" class="edge">
<title>views/GatewayDetail.js&#45;&gt;config/constants.js</title>
<path fill="none" stroke="#757575" d="M273.51,-260.81C288.36,-235.01 327.54,-174.54 380,-151.75 517.07,-92.21 700.08,-132.88 784.81,-157.61"/>
<polygon fill="#757575" stroke="#757575" points="783.59,-160.9 794.17,-160.4 785.59,-154.19 783.59,-160.9"/>
</g>
<!-- views/GatewayDetail.js&#45;&gt;config/roles.js -->
<g id="edge45" class="edge">
<title>views/GatewayDetail.js&#45;&gt;config/roles.js</title>
<path fill="none" stroke="#757575" d="M270.62,-284.54C282.88,-323.67 325.12,-452.19 380,-548.75 423.22,-624.79 490.09,-704.68 521.74,-740.86"/>
<polygon fill="#757575" stroke="#757575" points="518.75,-742.76 527.99,-747.95 524,-738.13 518.75,-742.76"/>
</g>
<!-- views/GatewayDetail.js&#45;&gt;containers/Layout.js -->
<g id="edge46" class="edge">
<title>views/GatewayDetail.js&#45;&gt;containers/Layout.js</title>
<path fill="none" stroke="#757575" d="M271.63,-284.27C284.99,-318.02 323.98,-419.84 344,-507.75 371.17,-627.08 313.39,-678.08 380,-780.75 406.16,-821.07 455.33,-847.51 492.19,-862.65"/>
<polygon fill="#757575" stroke="#757575" points="490.72,-865.84 501.31,-866.25 493.29,-859.33 490.72,-865.84"/>
</g>
<!-- hooks/useGraphData.js -->
<g id="node32" class="node">
<title>hooks/useGraphData.js</title>
<path fill="none" stroke="#c6c5fe" d="M611.83,-225.25C611.83,-225.25 469.17,-225.25 469.17,-225.25 465.33,-225.25 461.5,-221.41 461.5,-217.58 461.5,-217.58 461.5,-209.91 461.5,-209.91 461.5,-206.08 465.33,-202.25 469.17,-202.25 469.17,-202.25 611.83,-202.25 611.83,-202.25 615.67,-202.25 619.5,-206.08 619.5,-209.91 619.5,-209.91 619.5,-217.58 619.5,-217.58 619.5,-221.41 615.67,-225.25 611.83,-225.25"/>
<text text-anchor="middle" x="540.5" y="-210.05" font-family="Arial" font-size="14.00" fill="#c6c5fe">hooks/useGraphData.js</text>
</g>
<!-- views/GatewayDetail.js&#45;&gt;hooks/useGraphData.js -->
<g id="edge48" class="edge">
<title>views/GatewayDetail.js&#45;&gt;hooks/useGraphData.js</title>
<path fill="none" stroke="#757575" d="M303.6,-260.82C325.57,-253.97 354.19,-245.6 380,-239.75 402.57,-234.63 427.16,-230.11 450.12,-226.34"/>
<polygon fill="#757575" stroke="#757575" points="450.44,-229.83 459.76,-224.79 449.33,-222.92 450.44,-229.83"/>
</g>
<!-- utils/helpers.js -->
<g id="node35" class="node">
<title>utils/helpers.js</title>
<path fill="none" stroke="#c6c5fe" d="M583.83,-184.25C583.83,-184.25 497.17,-184.25 497.17,-184.25 493.33,-184.25 489.5,-180.41 489.5,-176.58 489.5,-176.58 489.5,-168.91 489.5,-168.91 489.5,-165.08 493.33,-161.25 497.17,-161.25 497.17,-161.25 583.83,-161.25 583.83,-161.25 587.67,-161.25 591.5,-165.08 591.5,-168.91 591.5,-168.91 591.5,-176.58 591.5,-176.58 591.5,-180.41 587.67,-184.25 583.83,-184.25"/>
<text text-anchor="middle" x="540.5" y="-169.05" font-family="Arial" font-size="14.00" fill="#c6c5fe">utils/helpers.js</text>
</g>
<!-- views/GatewayDetail.js&#45;&gt;utils/helpers.js -->
<g id="edge49" class="edge">
<title>views/GatewayDetail.js&#45;&gt;utils/helpers.js</title>
<path fill="none" stroke="#757575" d="M279.32,-260.83C298.87,-242.71 339,-208.67 380,-192.75 410.91,-180.74 447.49,-175.57 477.81,-173.48"/>
<polygon fill="#757575" stroke="#757575" points="477.82,-176.99 487.59,-172.91 477.41,-170 477.82,-176.99"/>
</g>
<!-- views/GatewayEdit.js&#45;&gt;components/fields/input/ControlledAutocomplete.js -->
<g id="edge50" class="edge">
<title>views/GatewayEdit.js&#45;&gt;components/fields/input/ControlledAutocomplete.js</title>
<path fill="none" stroke="#757575" d="M331.85,-849.72C336.21,-851.96 340.32,-854.61 344,-857.75 374.3,-883.56 348.17,-915.85 380,-939.75 381.57,-940.93 383.18,-942.06 384.82,-943.15"/>
<polygon fill="#757575" stroke="#757575" points="382.83,-946.04 393.22,-948.09 386.38,-940 382.83,-946.04"/>
</g>
<!-- views/GatewayEdit.js&#45;&gt;components/fields/input/ControlledTextField.js -->
<g id="edge51" class="edge">
<title>views/GatewayEdit.js&#45;&gt;components/fields/input/ControlledTextField.js</title>
<path fill="none" stroke="#757575" d="M333.04,-849.61C337.02,-851.89 340.73,-854.57 344,-857.75 384.89,-897.4 336.75,-943.68 380,-980.75 381.53,-982.06 383.1,-983.31 384.71,-984.51"/>
<polygon fill="#757575" stroke="#757575" points="382.75,-987.42 393.04,-989.97 386.59,-981.56 382.75,-987.42"/>
</g>
<!-- views/GatewayEdit.js&#45;&gt;hooks/useContent.js -->
<g id="edge55" class="edge">
<title>views/GatewayEdit.js&#45;&gt;hooks/useContent.js</title>
<path fill="none" stroke="#757575" d="M338.62,-829.17C459.94,-814.54 693.57,-785.81 701,-780.75 728.3,-762.16 710.48,-735.42 737,-715.75 806.73,-664.02 843.31,-693.86 928,-674.75 964.18,-666.58 1004.6,-657.03 1036.84,-649.31"/>
<polygon fill="#757575" stroke="#757575" points="1037.51,-652.75 1046.41,-647.01 1035.87,-645.94 1037.51,-652.75"/>
</g>
<!-- views/GatewayEdit.js&#45;&gt;config/roles.js -->
<g id="edge52" class="edge">
<title>views/GatewayEdit.js&#45;&gt;config/roles.js</title>
<path fill="none" stroke="#757575" d="M288.84,-825.8C311.13,-814.12 347.03,-796.69 380,-786.75 412.16,-777.05 449.12,-770.74 479.35,-766.77"/>
<polygon fill="#757575" stroke="#757575" points="479.6,-770.26 489.09,-765.54 478.73,-763.32 479.6,-770.26"/>
</g>
<!-- views/GatewayEdit.js&#45;&gt;containers/Layout.js -->
<g id="edge53" class="edge">
<title>views/GatewayEdit.js&#45;&gt;containers/Layout.js</title>
<path fill="none" stroke="#757575" d="M338.95,-848.57C376.41,-854.21 422.28,-861.11 460.69,-866.89"/>
<polygon fill="#757575" stroke="#757575" points="459.93,-870.32 470.34,-868.34 460.97,-863.39 459.93,-870.32"/>
</g>
<!-- views/GatewayEdit.js&#45;&gt;containers/withRole.js -->
<g id="edge54" class="edge">
<title>views/GatewayEdit.js&#45;&gt;containers/withRole.js</title>
<path fill="none" stroke="#757575" d="M327.31,-849.62C333.16,-851.88 338.83,-854.56 344,-857.75 364.65,-870.47 358.61,-887.32 380,-898.75 402.65,-910.84 429.59,-916.96 454.83,-919.83"/>
<polygon fill="#757575" stroke="#757575" points="454.49,-923.32 464.78,-920.79 455.16,-916.35 454.49,-923.32"/>
</g>
<!-- views/Gateways.js&#45;&gt;contexts/userContext.js -->
<g id="edge60" class="edge">
<title>views/Gateways.js&#45;&gt;contexts/userContext.js</title>
<path fill="none" stroke="#757575" d="M330.16,-667.62C436.23,-675.27 644.15,-695.57 701,-739.75 731.79,-763.67 706.08,-795.99 737,-819.75 913.78,-955.56 1039.39,-788.51 1232,-900.75 1281.06,-929.34 1317.41,-987.82 1334.55,-1019.75"/>
<polygon fill="#757575" stroke="#757575" points="1331.38,-1021.24 1339.1,-1028.5 1337.59,-1018.01 1331.38,-1021.24"/>
</g>
<!-- views/Gateways.js&#45;&gt;hooks/useStyles.js -->
<g id="edge62" class="edge">
<title>views/Gateways.js&#45;&gt;hooks/useStyles.js</title>
<path fill="none" stroke="#757575" d="M274.64,-651.99C297.42,-617.07 364.32,-515.93 380,-507.75 534.11,-427.37 1071.97,-466.05 1270.84,-483.65"/>
<polygon fill="#757575" stroke="#757575" points="1270.26,-487.11 1280.53,-484.51 1270.88,-480.14 1270.26,-487.11"/>
</g>
<!-- views/Gateways.js&#45;&gt;hooks/useContent.js -->
<g id="edge61" class="edge">
<title>views/Gateways.js&#45;&gt;hooks/useContent.js</title>
<path fill="none" stroke="#757575" d="M330.45,-659.76C420.72,-654.25 591.44,-644.47 737,-639.75 833.22,-636.62 943.96,-635.45 1016.92,-635.01"/>
<polygon fill="#757575" stroke="#757575" points="1016.81,-638.51 1026.79,-634.95 1016.77,-631.51 1016.81,-638.51"/>
</g>
<!-- components/table/index.js -->
<g id="node23" class="node">
<title>components/table/index.js</title>
<path fill="none" stroke="#c6c5fe" d="M619.33,-422.25C619.33,-422.25 461.67,-422.25 461.67,-422.25 457.83,-422.25 454,-418.41 454,-414.58 454,-414.58 454,-406.91 454,-406.91 454,-403.08 457.83,-399.25 461.67,-399.25 461.67,-399.25 619.33,-399.25 619.33,-399.25 623.17,-399.25 627,-403.08 627,-406.91 627,-406.91 627,-414.58 627,-414.58 627,-418.41 623.17,-422.25 619.33,-422.25"/>
<text text-anchor="middle" x="540.5" y="-407.05" font-family="Arial" font-size="14.00" fill="#c6c5fe">components/table/index.js</text>
</g>
<!-- views/Gateways.js&#45;&gt;components/table/index.js -->
<g id="edge56" class="edge">
<title>views/Gateways.js&#45;&gt;components/table/index.js</title>
<path fill="none" stroke="#757575" d="M275.65,-652.01C290.52,-631.58 321.5,-587.92 344,-548.75 362.22,-517.03 353.23,-499.67 380,-474.75 405.49,-451.01 440.9,-435.61 471.88,-425.89"/>
<polygon fill="#757575" stroke="#757575" points="472.6,-429.33 481.18,-423.11 470.6,-422.62 472.6,-429.33"/>
</g>
<!-- config/columns/gateways.js -->
<g id="node25" class="node">
<title>config/columns/gateways.js</title>
<path fill="none" stroke="#c6c5fe" d="M623.83,-540.25C623.83,-540.25 457.17,-540.25 457.17,-540.25 453.33,-540.25 449.5,-536.41 449.5,-532.58 449.5,-532.58 449.5,-524.91 449.5,-524.91 449.5,-521.08 453.33,-517.25 457.17,-517.25 457.17,-517.25 623.83,-517.25 623.83,-517.25 627.67,-517.25 631.5,-521.08 631.5,-524.91 631.5,-524.91 631.5,-532.58 631.5,-532.58 631.5,-536.41 627.67,-540.25 623.83,-540.25"/>
<text text-anchor="middle" x="540.5" y="-525.05" font-family="Arial" font-size="14.00" fill="#c6c5fe">config/columns/gateways.js</text>
</g>
<!-- views/Gateways.js&#45;&gt;config/columns/gateways.js -->
<g id="edge57" class="edge">
<title>views/Gateways.js&#45;&gt;config/columns/gateways.js</title>
<path fill="none" stroke="#757575" d="M275.35,-651.83C292.21,-628.82 332.72,-578.44 380,-554.75 397.8,-545.83 417.99,-539.86 437.88,-535.88"/>
<polygon fill="#757575" stroke="#757575" points="438.5,-539.33 447.71,-534.09 437.24,-532.44 438.5,-539.33"/>
</g>
<!-- views/Gateways.js&#45;&gt;config/roles.js -->
<g id="edge58" class="edge">
<title>views/Gateways.js&#45;&gt;config/roles.js</title>
<path fill="none" stroke="#757575" d="M300.69,-675.74C349.71,-693.19 440.79,-725.61 495.19,-744.98"/>
<polygon fill="#757575" stroke="#757575" points="493.87,-748.22 504.46,-748.28 496.22,-741.63 493.87,-748.22"/>
</g>
<!-- views/Gateways.js&#45;&gt;containers/Layout.js -->
<g id="edge59" class="edge">
<title>views/Gateways.js&#45;&gt;containers/Layout.js</title>
<path fill="none" stroke="#757575" d="M276.73,-675.66C295.3,-697.95 337.73,-746.79 380,-780.75 420.64,-813.4 472.97,-843.61 506.39,-861.62"/>
<polygon fill="#757575" stroke="#757575" points="504.31,-864.48 514.78,-866.09 507.6,-858.3 504.31,-864.48"/>
</g>
<!-- views/Login.js&#45;&gt;containers/WholePageLoader.js -->
<g id="edge64" class="edge">
<title>views/Login.js&#45;&gt;containers/WholePageLoader.js</title>
<path fill="none" stroke="#757575" d="M316.76,-1248.51C426.9,-1241.33 699.67,-1223.45 928,-1207.75 945.62,-1206.54 964.27,-1205.23 982.5,-1203.95"/>
<polygon fill="#757575" stroke="#757575" points="982.54,-1207.45 992.27,-1203.26 982.05,-1200.47 982.54,-1207.45"/>
</g>
<!-- views/Login.js&#45;&gt;contexts/userContext.js -->
<g id="edge65" class="edge">
<title>views/Login.js&#45;&gt;contexts/userContext.js</title>
<path fill="none" stroke="#757575" d="M316.72,-1255.88C491.38,-1269.51 1074.82,-1307.1 1232,-1215.75 1290.93,-1181.49 1324.71,-1102.98 1338.36,-1064.23"/>
<polygon fill="#757575" stroke="#757575" points="1341.66,-1065.39 1341.53,-1054.79 1335.02,-1063.15 1341.66,-1065.39"/>
</g>
<!-- views/Login.js&#45;&gt;components/fields/input/ControlledTextField.js -->
<g id="edge63" class="edge">
<title>views/Login.js&#45;&gt;components/fields/input/ControlledTextField.js</title>
<path fill="none" stroke="#757575" d="M279.78,-1240.03C323.04,-1200.34 464.28,-1070.76 518.26,-1021.23"/>
<polygon fill="#757575" stroke="#757575" points="520.31,-1024.1 525.32,-1014.76 515.58,-1018.94 520.31,-1024.1"/>
</g>
<!-- views/Login.js&#45;&gt;utils/api.js -->
<g id="edge67" class="edge">
<title>views/Login.js&#45;&gt;utils/api.js</title>
<path fill="none" stroke="#757575" d="M278.92,-1263.47C298.24,-1281.59 338.42,-1315.78 380,-1329.75 570.4,-1393.74 630.64,-1349.75 831.5,-1349.75 831.5,-1349.75 831.5,-1349.75 1099,-1349.75 1287.11,-1349.75 1440.64,-1132.57 1485.03,-1062.95"/>
<polygon fill="#757575" stroke="#757575" points="1487.84,-1065.06 1490.19,-1054.73 1481.91,-1061.34 1487.84,-1065.06"/>
</g>
<!-- hooks/useLoginStyles.js -->
<g id="node33" class="node">
<title>hooks/useLoginStyles.js</title>
<path fill="none" stroke="#cfffac" d="M613.33,-1321.25C613.33,-1321.25 467.67,-1321.25 467.67,-1321.25 463.83,-1321.25 460,-1317.41 460,-1313.58 460,-1313.58 460,-1305.91 460,-1305.91 460,-1302.08 463.83,-1298.25 467.67,-1298.25 467.67,-1298.25 613.33,-1298.25 613.33,-1298.25 617.17,-1298.25 621,-1302.08 621,-1305.91 621,-1305.91 621,-1313.58 621,-1313.58 621,-1317.41 617.17,-1321.25 613.33,-1321.25"/>
<text text-anchor="middle" x="540.5" y="-1306.05" font-family="Arial" font-size="14.00" fill="#cfffac">hooks/useLoginStyles.js</text>
</g>
<!-- views/Login.js&#45;&gt;hooks/useLoginStyles.js -->
<g id="edge66" class="edge">
<title>views/Login.js&#45;&gt;hooks/useLoginStyles.js</title>
<path fill="none" stroke="#757575" d="M305.16,-1263.73C326.94,-1270.27 354.82,-1278.15 380,-1283.75 402.02,-1288.64 425.95,-1293.03 448.41,-1296.74"/>
<polygon fill="#757575" stroke="#757575" points="447.72,-1300.18 458.16,-1298.32 448.85,-1293.27 447.72,-1300.18"/>
</g>
<!-- views/UserAdd.js&#45;&gt;components/fields/input/ControlledAutocomplete.js -->
<g id="edge68" class="edge">
<title>views/UserAdd.js&#45;&gt;components/fields/input/ControlledAutocomplete.js</title>
<path fill="none" stroke="#757575" d="M326.44,-930.78C343.69,-933.84 362.57,-937.06 380,-939.75 396.76,-942.33 414.53,-944.87 431.91,-947.24"/>
<polygon fill="#757575" stroke="#757575" points="431.37,-950.7 441.75,-948.57 432.31,-943.77 431.37,-950.7"/>
</g>
<!-- views/UserAdd.js&#45;&gt;components/fields/input/ControlledTextField.js -->
<g id="edge69" class="edge">
<title>views/UserAdd.js&#45;&gt;components/fields/input/ControlledTextField.js</title>
<path fill="none" stroke="#757575" d="M326.12,-931.16C332.38,-933.51 338.47,-936.34 344,-939.75 364.65,-952.47 358.61,-969.32 380,-980.75 383.26,-982.49 386.62,-984.11 390.04,-985.61"/>
<polygon fill="#757575" stroke="#757575" points="388.52,-988.78 399.11,-989.22 391.11,-982.27 388.52,-988.78"/>
</g>
<!-- views/UserAdd.js&#45;&gt;hooks/useContent.js -->
<g id="edge73" class="edge">
<title>views/UserAdd.js&#45;&gt;hooks/useContent.js</title>
<path fill="none" stroke="#757575" d="M326.12,-929.06C332.6,-931.78 338.74,-935.27 344,-939.75 374.3,-965.56 346.68,-999.98 380,-1021.75 439.72,-1060.75 636.02,-1051.17 701,-1021.75 723.09,-1011.75 716.03,-992.92 737,-980.75 811.94,-937.26 858.22,-993.11 928,-941.75 979.43,-903.89 1060.16,-721.67 1087.55,-657.32"/>
<polygon fill="#757575" stroke="#757575" points="1090.76,-658.7 1091.43,-648.13 1084.32,-655.97 1090.76,-658.7"/>
</g>
<!-- views/UserAdd.js&#45;&gt;config/roles.js -->
<g id="edge70" class="edge">
<title>views/UserAdd.js&#45;&gt;config/roles.js</title>
<path fill="none" stroke="#757575" d="M325.32,-907.82C331.87,-905.33 338.24,-902.34 344,-898.75 364.57,-885.9 361.43,-873.34 380,-857.75 419.48,-824.61 471.47,-795.2 505.18,-777.69"/>
<polygon fill="#757575" stroke="#757575" points="506.38,-781.01 513.68,-773.33 503.19,-774.78 506.38,-781.01"/>
</g>
<!-- views/UserAdd.js&#45;&gt;containers/Layout.js -->
<g id="edge71" class="edge">
<title>views/UserAdd.js&#45;&gt;containers/Layout.js</title>
<path fill="none" stroke="#757575" d="M326.41,-908.03C343.66,-904.81 362.55,-901.46 380,-898.75 406.18,-894.68 434.89,-890.87 460.64,-887.7"/>
<polygon fill="#757575" stroke="#757575" points="460.85,-891.2 470.35,-886.52 460,-884.25 460.85,-891.2"/>
</g>
<!-- views/UserAdd.js&#45;&gt;containers/withRole.js -->
<g id="edge72" class="edge">
<title>views/UserAdd.js&#45;&gt;containers/withRole.js</title>
<path fill="none" stroke="#757575" d="M326.46,-919.75C363.97,-919.75 413,-919.75 454.56,-919.75"/>
<polygon fill="#757575" stroke="#757575" points="454.56,-923.25 464.56,-919.75 454.56,-916.25 454.56,-923.25"/>
</g>
<!-- views/UserDetail.js&#45;&gt;components/control&#45;panel/ControlPanel.js -->
<g id="edge74" class="edge">
<title>views/UserDetail.js&#45;&gt;components/control&#45;panel/ControlPanel.js</title>
<path fill="none" stroke="#757575" d="M275.8,-767.08C293.13,-745.03 334,-697.31 380,-673.75 486.23,-619.32 823.2,-567.16 994.66,-543.3"/>
<polygon fill="#757575" stroke="#757575" points="995.04,-546.78 1004.46,-541.94 994.08,-539.85 995.04,-546.78"/>
</g>
<!-- views/UserDetail.js&#45;&gt;hooks/useContent.js -->
<g id="edge78" class="edge">
<title>views/UserDetail.js&#45;&gt;hooks/useContent.js</title>
<path fill="none" stroke="#757575" d="M297.29,-766.81C319.82,-758.3 351.46,-747.1 380,-739.75 606.84,-681.31 883.01,-652.33 1016.75,-640.88"/>
<polygon fill="#757575" stroke="#757575" points="1016.89,-644.38 1026.56,-640.05 1016.3,-637.4 1016.89,-644.38"/>
</g>
<!-- views/UserDetail.js&#45;&gt;config/roles.js -->
<g id="edge75" class="edge">
<title>views/UserDetail.js&#45;&gt;config/roles.js</title>
<path fill="none" stroke="#757575" d="M331.92,-774.46C376.72,-771.5 435.85,-767.59 479.53,-764.71"/>
<polygon fill="#757575" stroke="#757575" points="479.59,-768.21 489.34,-764.06 479.13,-761.23 479.59,-768.21"/>
</g>
<!-- views/UserDetail.js&#45;&gt;containers/Layout.js -->
<g id="edge76" class="edge">
<title>views/UserDetail.js&#45;&gt;containers/Layout.js</title>
<path fill="none" stroke="#757575" d="M299.6,-790.71C348.63,-808.7 441.43,-842.76 496.13,-862.83"/>
<polygon fill="#757575" stroke="#757575" points="494.85,-866.09 505.44,-866.25 497.26,-859.52 494.85,-866.09"/>
</g>
<!-- views/UserDetail.js&#45;&gt;containers/withRole.js -->
<g id="edge77" class="edge">
<title>views/UserDetail.js&#45;&gt;containers/withRole.js</title>
<path fill="none" stroke="#757575" d="M303.69,-790.67C317.72,-796.69 332.98,-805.22 344,-816.75 371.51,-845.51 348.17,-874.85 380,-898.75 401.21,-914.67 428.62,-921.67 454.73,-924.18"/>
<polygon fill="#757575" stroke="#757575" points="454.47,-927.67 464.7,-924.9 454.98,-920.68 454.47,-927.67"/>
</g>
<!-- views/UserEdit.js&#45;&gt;contexts/userContext.js -->
<g id="edge84" class="edge">
<title>views/UserEdit.js&#45;&gt;contexts/userContext.js</title>
<path fill="none" stroke="#757575" d="M273.88,-972.65C289.16,-997.79 328.71,-1055.86 380,-1078.75 552.94,-1155.93 1047.57,-1140.77 1232,-1097.75 1263.4,-1090.42 1296.1,-1073.09 1318.29,-1059.64"/>
<polygon fill="#757575" stroke="#757575" points="1320.07,-1062.65 1326.71,-1054.39 1316.37,-1056.71 1320.07,-1062.65"/>
</g>
<!-- views/UserEdit.js&#45;&gt;components/fields/input/ControlledAutocomplete.js -->
<g id="edge79" class="edge">
<title>views/UserEdit.js&#45;&gt;components/fields/input/ControlledAutocomplete.js</title>
<path fill="none" stroke="#757575" d="M325.79,-960.75C338.89,-960.75 353.41,-960.75 368.54,-960.75"/>
<polygon fill="#757575" stroke="#757575" points="368.15,-964.25 378.15,-960.75 368.15,-957.25 368.15,-964.25"/>
</g>
<!-- views/UserEdit.js&#45;&gt;components/fields/input/ControlledTextField.js -->
<g id="edge80" class="edge">
<title>views/UserEdit.js&#45;&gt;components/fields/input/ControlledTextField.js</title>
<path fill="none" stroke="#757575" d="M325.86,-971.67C343.27,-974.77 362.38,-978.03 380,-980.75 396.76,-983.33 414.53,-985.87 431.91,-988.24"/>
<polygon fill="#757575" stroke="#757575" points="431.37,-991.7 441.75,-989.57 432.31,-984.77 431.37,-991.7"/>
</g>
<!-- views/UserEdit.js&#45;&gt;hooks/useContent.js -->
<g id="edge85" class="edge">
<title>views/UserEdit.js&#45;&gt;hooks/useContent.js</title>
<path fill="none" stroke="#757575" d="M277.04,-972.54C295.14,-992.79 335.55,-1033.48 380,-1048.75 495.31,-1088.35 834.75,-1100.29 928,-1021.75 970.91,-985.6 943.38,-952.93 964,-900.75 1001.17,-806.71 1059.31,-700.87 1084.58,-656.33"/>
<polygon fill="#757575" stroke="#757575" points="1087.46,-658.33 1089.38,-647.91 1081.38,-654.86 1087.46,-658.33"/>
</g>
<!-- views/UserEdit.js&#45;&gt;config/roles.js -->
<g id="edge81" class="edge">
<title>views/UserEdit.js&#45;&gt;config/roles.js</title>
<path fill="none" stroke="#757575" d="M325.75,-950.79C332.37,-947.97 338.65,-944.36 344,-939.75 374.14,-913.75 353.78,-887.7 380,-857.75 412.5,-820.62 462.76,-793.35 498.16,-777.34"/>
<polygon fill="#757575" stroke="#757575" points="499.5,-780.57 507.24,-773.34 496.68,-774.16 499.5,-780.57"/>
</g>
<!-- views/UserEdit.js&#45;&gt;containers/Layout.js -->
<g id="edge82" class="edge">
<title>views/UserEdit.js&#45;&gt;containers/Layout.js</title>
<path fill="none" stroke="#757575" d="M325.32,-948.82C331.87,-946.33 338.24,-943.34 344,-939.75 364.57,-926.9 358.58,-910.11 380,-898.75 404.38,-885.82 433.72,-879.9 460.55,-877.49"/>
<polygon fill="#757575" stroke="#757575" points="460.65,-881 470.37,-876.78 460.14,-874.02 460.65,-881"/>
</g>
<!-- views/UserEdit.js&#45;&gt;containers/withRole.js -->
<g id="edge83" class="edge">
<title>views/UserEdit.js&#45;&gt;containers/withRole.js</title>
<path fill="none" stroke="#757575" d="M325.83,-949.14C343.23,-945.88 362.35,-942.49 380,-939.75 404.28,-935.97 430.73,-932.43 454.98,-929.4"/>
<polygon fill="#757575" stroke="#757575" points="455.32,-932.89 464.82,-928.19 454.47,-925.94 455.32,-932.89"/>
</g>
<!-- views/Users.js&#45;&gt;contexts/userContext.js -->
<g id="edge90" class="edge">
<title>views/Users.js&#45;&gt;contexts/userContext.js</title>
<path fill="none" stroke="#757575" d="M316.68,-540.72C492.5,-583.81 1082.77,-734.88 1232,-855.75 1246.63,-867.6 1307.12,-973.46 1333.32,-1019.98"/>
<polygon fill="#757575" stroke="#757575" points="1330.22,-1021.62 1338.17,-1028.63 1336.33,-1018.2 1330.22,-1021.62"/>
</g>
<!-- views/Users.js&#45;&gt;hooks/useStyles.js -->
<g id="edge92" class="edge">
<title>views/Users.js&#45;&gt;hooks/useStyles.js</title>
<path fill="none" stroke="#757575" d="M270.07,-517.03C279.59,-483.35 312.19,-386.24 380,-348.75 707.76,-167.52 1189.39,-405.15 1314.77,-473.4"/>
<polygon fill="#757575" stroke="#757575" points="1313.03,-476.44 1323.48,-478.2 1316.4,-470.31 1313.03,-476.44"/>
</g>
<!-- views/Users.js&#45;&gt;hooks/useContent.js -->
<g id="edge91" class="edge">
<title>views/Users.js&#45;&gt;hooks/useContent.js</title>
<path fill="none" stroke="#757575" d="M303.24,-516.86C406.66,-485.11 709.73,-407.36 928,-507.75 950.34,-518.02 945.44,-533.62 964,-549.75 995.32,-576.96 1036.11,-601.72 1064.22,-617.4"/>
<polygon fill="#757575" stroke="#757575" points="1062.19,-620.28 1072.63,-622.03 1065.56,-614.15 1062.19,-620.28"/>
</g>
<!-- views/Users.js&#45;&gt;components/table/index.js -->
<g id="edge86" class="edge">
<title>views/Users.js&#45;&gt;components/table/index.js</title>
<path fill="none" stroke="#757575" d="M277.5,-516.85C296.01,-496.72 336.62,-456.25 380,-436.75 399.31,-428.07 421.08,-422.25 442.2,-418.35"/>
<polygon fill="#757575" stroke="#757575" points="442.74,-421.81 452.01,-416.69 441.57,-414.91 442.74,-421.81"/>
</g>
<!-- config/columns/users.js -->
<g id="node26" class="node">
<title>config/columns/users.js</title>
<path fill="none" stroke="#cfffac" d="M611.83,-381.25C611.83,-381.25 469.17,-381.25 469.17,-381.25 465.33,-381.25 461.5,-377.41 461.5,-373.58 461.5,-373.58 461.5,-365.91 461.5,-365.91 461.5,-362.08 465.33,-358.25 469.17,-358.25 469.17,-358.25 611.83,-358.25 611.83,-358.25 615.67,-358.25 619.5,-362.08 619.5,-365.91 619.5,-365.91 619.5,-373.58 619.5,-373.58 619.5,-377.41 615.67,-381.25 611.83,-381.25"/>
<text text-anchor="middle" x="540.5" y="-366.05" font-family="Arial" font-size="14.00" fill="#cfffac">config/columns/users.js</text>
</g>
<!-- views/Users.js&#45;&gt;config/columns/users.js -->
<g id="edge87" class="edge">
<title>views/Users.js&#45;&gt;config/columns/users.js</title>
<path fill="none" stroke="#757575" d="M272.63,-516.87C286.47,-489.15 325.06,-420.22 380,-389.75 401.07,-378.06 426.06,-371.98 449.94,-369.06"/>
<polygon fill="#757575" stroke="#757575" points="450.09,-372.56 459.68,-368.05 449.37,-365.6 450.09,-372.56"/>
</g>
<!-- views/Users.js&#45;&gt;config/roles.js -->
<g id="edge88" class="edge">
<title>views/Users.js&#45;&gt;config/roles.js</title>
<path fill="none" stroke="#757575" d="M280.89,-540.57C325.08,-578.19 462.7,-695.36 517.07,-741.65"/>
<polygon fill="#757575" stroke="#757575" points="514.6,-744.15 524.49,-747.97 519.14,-738.82 514.6,-744.15"/>
</g>
<!-- views/Users.js&#45;&gt;containers/Layout.js -->
<g id="edge89" class="edge">
<title>views/Users.js&#45;&gt;containers/Layout.js</title>
<path fill="none" stroke="#757575" d="M277.02,-540.58C293.34,-560.43 325.7,-602.27 344,-642.75 370.11,-700.5 342.27,-729.81 380,-780.75 409.14,-820.09 459.21,-847.06 495.49,-862.6"/>
<polygon fill="#757575" stroke="#757575" points="493.82,-865.7 504.4,-866.29 496.5,-859.23 493.82,-865.7"/>
</g>
<!-- components/control&#45;panel/ControlPanel.js&#45;&gt;contexts/userContext.js -->
<g id="edge14" class="edge">
<title>components/control&#45;panel/ControlPanel.js&#45;&gt;contexts/userContext.js</title>
<path fill="none" stroke="#757575" d="M1130.74,-541.71C1161.22,-554.82 1206.3,-578.75 1232,-613.75 1327.94,-744.41 1342.84,-950.22 1345.11,-1018.72"/>
<polygon fill="#757575" stroke="#757575" points="1341.6,-1018.45 1345.36,-1028.35 1348.6,-1018.26 1341.6,-1018.45"/>
</g>
<!-- components/control&#45;panel/ControlPanel.js&#45;&gt;hooks/useStyles.js -->
<g id="edge15" class="edge">
<title>components/control&#45;panel/ControlPanel.js&#45;&gt;hooks/useStyles.js</title>
<path fill="none" stroke="#757575" d="M1174.63,-517.78C1205.26,-512.94 1240.53,-507.36 1271.04,-502.53"/>
<polygon fill="#757575" stroke="#757575" points="1271.22,-506.04 1280.55,-501.02 1270.12,-499.13 1271.22,-506.04"/>
</g>
<!-- components/loader/Loader.js -->
<g id="node18" class="node">
<title>components/loader/Loader.js</title>
<path fill="none" stroke="#c6c5fe" d="M920.33,-1013.25C920.33,-1013.25 744.67,-1013.25 744.67,-1013.25 740.83,-1013.25 737,-1009.41 737,-1005.58 737,-1005.58 737,-997.91 737,-997.91 737,-994.08 740.83,-990.25 744.67,-990.25 744.67,-990.25 920.33,-990.25 920.33,-990.25 924.17,-990.25 928,-994.08 928,-997.91 928,-997.91 928,-1005.58 928,-1005.58 928,-1009.41 924.17,-1013.25 920.33,-1013.25"/>
<text text-anchor="middle" x="832.5" y="-998.05" font-family="Arial" font-size="14.00" fill="#c6c5fe">components/loader/Loader.js</text>
</g>
<!-- components/loader/Loader.js&#45;&gt;containers/WholePageLoader.js -->
<g id="edge16" class="edge">
<title>components/loader/Loader.js&#45;&gt;containers/WholePageLoader.js</title>
<path fill="none" stroke="#757575" d="M849.59,-1013.59C893.87,-1046.2 1017.85,-1137.47 1071.6,-1177.05"/>
<polygon fill="#757575" stroke="#757575" points="1069.44,-1179.81 1079.57,-1182.92 1073.59,-1174.17 1069.44,-1179.81"/>
</g>
<!-- components/sidebar/Sidebar.js -->
<g id="node19" class="node">
<title>components/sidebar/Sidebar.js</title>
<path fill="none" stroke="#c6c5fe" d="M1191.33,-933.25C1191.33,-933.25 1004.67,-933.25 1004.67,-933.25 1000.83,-933.25 997,-929.41 997,-925.58 997,-925.58 997,-917.91 997,-917.91 997,-914.08 1000.83,-910.25 1004.67,-910.25 1004.67,-910.25 1191.33,-910.25 1191.33,-910.25 1195.17,-910.25 1199,-914.08 1199,-917.91 1199,-917.91 1199,-925.58 1199,-925.58 1199,-929.41 1195.17,-933.25 1191.33,-933.25"/>
<text text-anchor="middle" x="1098" y="-918.05" font-family="Arial" font-size="14.00" fill="#c6c5fe">components/sidebar/Sidebar.js</text>
</g>
<!-- components/sidebar/Sidebar.js&#45;&gt;contexts/userContext.js -->
<g id="edge17" class="edge">
<title>components/sidebar/Sidebar.js&#45;&gt;contexts/userContext.js</title>
<path fill="none" stroke="#757575" d="M1123.54,-933.69C1167.65,-955.17 1260.44,-1000.34 1310.96,-1024.93"/>
<polygon fill="#757575" stroke="#757575" points="1309.18,-1027.96 1319.7,-1029.19 1312.24,-1021.66 1309.18,-1027.96"/>
</g>
<!-- components/sidebar/Sidebar.js&#45;&gt;hooks/useStyles.js -->
<g id="edge18" class="edge">
<title>components/sidebar/Sidebar.js&#45;&gt;hooks/useStyles.js</title>
<path fill="none" stroke="#757575" d="M1199.3,-914.82C1211.35,-910.5 1222.66,-904.36 1232,-895.75 1289.82,-842.39 1330.72,-591.87 1342.22,-513.94"/>
<polygon fill="#757575" stroke="#757575" points="1345.68,-514.49 1343.65,-504.09 1338.75,-513.49 1345.68,-514.49"/>
</g>
<!-- components/sidebar/index.js -->
<g id="node20" class="node">
<title>components/sidebar/index.js</title>
<path fill="none" stroke="#c6c5fe" d="M918.83,-933.25C918.83,-933.25 746.17,-933.25 746.17,-933.25 742.33,-933.25 738.5,-929.41 738.5,-925.58 738.5,-925.58 738.5,-917.91 738.5,-917.91 738.5,-914.08 742.33,-910.25 746.17,-910.25 746.17,-910.25 918.83,-910.25 918.83,-910.25 922.67,-910.25 926.5,-914.08 926.5,-917.91 926.5,-917.91 926.5,-925.58 926.5,-925.58 926.5,-929.41 922.67,-933.25 918.83,-933.25"/>
<text text-anchor="middle" x="832.5" y="-918.05" font-family="Arial" font-size="14.00" fill="#c6c5fe">components/sidebar/index.js</text>
</g>
<!-- components/sidebar/index.js&#45;&gt;components/sidebar/Sidebar.js -->
<g id="edge19" class="edge">
<title>components/sidebar/index.js&#45;&gt;components/sidebar/Sidebar.js</title>
<path fill="none" stroke="#757575" d="M926.77,-921.75C945.71,-921.75 965.8,-921.75 985.3,-921.75"/>
<polygon fill="#757575" stroke="#757575" points="985.19,-925.25 995.19,-921.75 985.18,-918.25 985.19,-925.25"/>
</g>
<!-- components/status/Status.js -->
<g id="node21" class="node">
<title>components/status/Status.js</title>
<path fill="none" stroke="#c6c5fe" d="M917.83,-540.25C917.83,-540.25 747.17,-540.25 747.17,-540.25 743.33,-540.25 739.5,-536.41 739.5,-532.58 739.5,-532.58 739.5,-524.91 739.5,-524.91 739.5,-521.08 743.33,-517.25 747.17,-517.25 747.17,-517.25 917.83,-517.25 917.83,-517.25 921.67,-517.25 925.5,-521.08 925.5,-524.91 925.5,-524.91 925.5,-532.58 925.5,-532.58 925.5,-536.41 921.67,-540.25 917.83,-540.25"/>
<text text-anchor="middle" x="832.5" y="-525.05" font-family="Arial" font-size="14.00" fill="#c6c5fe">components/status/Status.js</text>
</g>
<!-- components/status/Status.js&#45;&gt;hooks/useContent.js -->
<g id="edge20" class="edge">
<title>components/status/Status.js&#45;&gt;hooks/useContent.js</title>
<path fill="none" stroke="#757575" d="M863.21,-540.7C910.69,-559.8 1003.69,-597.21 1056.98,-618.65"/>
<polygon fill="#757575" stroke="#757575" points="1055.41,-621.79 1065.99,-622.27 1058.02,-615.29 1055.41,-621.79"/>
</g>
<!-- hooks/useContent.js&#45;&gt;contexts/appContext.js -->
<g id="edge29" class="edge">
<title>hooks/useContent.js&#45;&gt;contexts/appContext.js</title>
<path fill="none" stroke="#757575" d="M1128.83,-622.79C1158.92,-609.3 1204.71,-584.59 1232,-549.75 1252.18,-523.98 1317.45,-308.85 1338.73,-237.58"/>
<polygon fill="#757575" stroke="#757575" points="1342.03,-238.75 1341.53,-228.17 1335.32,-236.76 1342.03,-238.75"/>
</g>
<!-- hooks/useContent.js&#45;&gt;utils/api.js -->
<g id="edge30" class="edge">
<title>hooks/useContent.js&#45;&gt;utils/api.js</title>
<path fill="none" stroke="#757575" d="M1110.51,-646.49C1166.25,-703.35 1408.34,-950.29 1478.73,-1022.09"/>
<polygon fill="#757575" stroke="#757575" points="1475.88,-1024.19 1485.38,-1028.88 1480.88,-1019.29 1475.88,-1024.19"/>
</g>
<!-- components/table/table.js -->
<g id="node24" class="node">
<title>components/table/table.js</title>
<path fill="none" stroke="#cfffac" d="M909.83,-422.25C909.83,-422.25 755.17,-422.25 755.17,-422.25 751.33,-422.25 747.5,-418.41 747.5,-414.58 747.5,-414.58 747.5,-406.91 747.5,-406.91 747.5,-403.08 751.33,-399.25 755.17,-399.25 755.17,-399.25 909.83,-399.25 909.83,-399.25 913.67,-399.25 917.5,-403.08 917.5,-406.91 917.5,-406.91 917.5,-414.58 917.5,-414.58 917.5,-418.41 913.67,-422.25 909.83,-422.25"/>
<text text-anchor="middle" x="832.5" y="-407.05" font-family="Arial" font-size="14.00" fill="#cfffac">components/table/table.js</text>
</g>
<!-- components/table/index.js&#45;&gt;components/table/table.js -->
<g id="edge21" class="edge">
<title>components/table/index.js&#45;&gt;components/table/table.js</title>
<path fill="none" stroke="#757575" d="M627.33,-410.75C661.54,-410.75 701.06,-410.75 736.16,-410.75"/>
<polygon fill="#757575" stroke="#757575" points="735.87,-414.25 745.87,-410.75 735.87,-407.25 735.87,-414.25"/>
</g>
<!-- config/columns/gateways.js&#45;&gt;components/status/Status.js -->
<g id="edge22" class="edge">
<title>config/columns/gateways.js&#45;&gt;components/status/Status.js</title>
<path fill="none" stroke="#757575" d="M631.67,-528.75C662.1,-528.75 696.31,-528.75 727.71,-528.75"/>
<polygon fill="#757575" stroke="#757575" points="727.62,-532.25 737.62,-528.75 727.62,-525.25 727.62,-532.25"/>
</g>
<!-- containers/Layout.js&#45;&gt;hooks/useStyles.js -->
<g id="edge25" class="edge">
<title>containers/Layout.js&#45;&gt;hooks/useStyles.js</title>
<path fill="none" stroke="#757575" d="M609.41,-872.09C741.93,-856.03 1038.9,-804.72 1232,-654.75 1282.59,-615.46 1319.33,-547.32 1335.82,-512.54"/>
<polygon fill="#757575" stroke="#757575" points="1338.81,-514.42 1339.82,-503.87 1332.45,-511.48 1338.81,-514.42"/>
</g>
<!-- containers/Layout.js&#45;&gt;components/loader/Loader.js -->
<g id="edge23" class="edge">
<title>containers/Layout.js&#45;&gt;components/loader/Loader.js</title>
<path fill="none" stroke="#757575" d="M609.29,-876.36C638.99,-877.98 673.31,-883.65 701,-898.75 722.88,-910.68 718.26,-925.32 737,-941.75 755.87,-958.29 779.73,-973.4 798.76,-984.32"/>
<polygon fill="#757575" stroke="#757575" points="797.02,-987.36 807.46,-989.2 800.45,-981.26 797.02,-987.36"/>
</g>
<!-- containers/Layout.js&#45;&gt;components/sidebar/index.js -->
<g id="edge24" class="edge">
<title>containers/Layout.js&#45;&gt;components/sidebar/index.js</title>
<path fill="none" stroke="#757575" d="M609.12,-886.47C637.54,-889.92 670.92,-894.21 701,-898.75 718.81,-901.43 737.94,-904.63 755.9,-907.77"/>
<polygon fill="#757575" stroke="#757575" points="755.27,-911.21 765.73,-909.5 756.49,-904.32 755.27,-911.21"/>
</g>
<!-- containers/withRole.js&#45;&gt;contexts/appContext.js -->
<g id="edge26" class="edge">
<title>containers/withRole.js&#45;&gt;contexts/appContext.js</title>
<path fill="none" stroke="#757575" d="M614.91,-915.24C758.85,-902.13 1077.57,-851.23 1232,-654.75 1283.76,-588.89 1247.79,-551.04 1268,-469.75 1289.62,-382.75 1322.9,-281.39 1337.81,-237.22"/>
<polygon fill="#757575" stroke="#757575" points="1341.04,-238.6 1340.94,-228.01 1334.41,-236.35 1341.04,-238.6"/>
</g>
<!-- containers/withRole.js&#45;&gt;contexts/userContext.js -->
<g id="edge27" class="edge">
<title>containers/withRole.js&#45;&gt;contexts/userContext.js</title>
<path fill="none" stroke="#757575" d="M614.76,-913.97C644.08,-915.23 676.62,-921.56 701,-939.75 732.9,-963.55 704.04,-999.44 737,-1021.75 911.34,-1139.74 1182.7,-1086.25 1294.61,-1056.68"/>
<polygon fill="#757575" stroke="#757575" points="1295.36,-1060.1 1304.11,-1054.12 1293.54,-1053.34 1295.36,-1060.1"/>
</g>
<!-- hooks/useGraphData.js&#45;&gt;hooks/useContent.js -->
<g id="edge32" class="edge">
<title>hooks/useGraphData.js&#45;&gt;hooks/useContent.js</title>
<path fill="none" stroke="#757575" d="M619.65,-219.56C708.29,-230.54 850.53,-262.24 928,-353.75 985.22,-421.35 914.59,-476.25 964,-549.75 985.68,-581.99 1024.14,-604.59 1054.14,-618.34"/>
<polygon fill="#757575" stroke="#757575" points="1052.42,-621.4 1062.98,-622.23 1055.23,-615 1052.42,-621.4"/>
</g>
<!-- hooks/useGraphData.js&#45;&gt;config/constants.js -->
<g id="edge31" class="edge">
<title>hooks/useGraphData.js&#45;&gt;config/constants.js</title>
<path fill="none" stroke="#757575" d="M619.83,-203.77C645.69,-200.39 674.59,-196.51 701,-192.75 719.13,-190.16 738.66,-187.25 756.95,-184.45"/>
<polygon fill="#757575" stroke="#757575" points="757.3,-187.94 766.65,-182.96 756.24,-181.02 757.3,-187.94"/>
</g>
<!-- index.js -->
<g id="node34" class="node">
<title>index.js</title>
<path fill="none" stroke="#c6c5fe" d="M54.33,-849.25C54.33,-849.25 7.67,-849.25 7.67,-849.25 3.83,-849.25 0,-845.41 0,-841.58 0,-841.58 0,-833.91 0,-833.91 0,-830.08 3.83,-826.25 7.67,-826.25 7.67,-826.25 54.33,-826.25 54.33,-826.25 58.17,-826.25 62,-830.08 62,-833.91 62,-833.91 62,-841.58 62,-841.58 62,-845.41 58.17,-849.25 54.33,-849.25"/>
<text text-anchor="middle" x="31" y="-834.05" font-family="Arial" font-size="14.00" fill="#c6c5fe">index.js</text>
</g>
<!-- index.js&#45;&gt;App.js -->
<g id="edge33" class="edge">
<title>index.js&#45;&gt;App.js</title>
<path fill="none" stroke="#757575" d="M62.38,-837.75C70.05,-837.75 78.37,-837.75 86.34,-837.75"/>
<polygon fill="#757575" stroke="#757575" points="86.15,-841.25 96.15,-837.75 86.15,-834.25 86.15,-841.25"/>
</g>
<!-- index.js&#45;&gt;contexts/appContext.js -->
<g id="edge34" class="edge">
<title>index.js&#45;&gt;contexts/appContext.js</title>
<path fill="none" stroke="#757575" d="M32.62,-825.79C37.51,-735.3 73,-158.57 188,-37.75 212.3,-12.22 229.75,-18.75 265,-18.75 265,-18.75 265,-18.75 833.5,-18.75 1011.15,-18.75 1078.1,38.97 1232,-49.75 1288.26,-82.18 1322.85,-155.13 1337.43,-192.2"/>
<polygon fill="#757575" stroke="#757575" points="1334.13,-193.34 1340.94,-201.46 1340.67,-190.87 1334.13,-193.34"/>
</g>
<!-- index.js&#45;&gt;contexts/userContext.js -->
<g id="edge35" class="edge">
<title>index.js&#45;&gt;contexts/userContext.js</title>
<path fill="none" stroke="#757575" d="M34.28,-849.75C49.88,-930.18 143.93,-1387.75 265,-1387.75 265,-1387.75 265,-1387.75 541.5,-1387.75 853.86,-1387.75 980.76,-1442.36 1232,-1256.75 1297.94,-1208.03 1329.16,-1109.47 1340.38,-1064.75"/>
<polygon fill="#757575" stroke="#757575" points="1343.76,-1065.66 1342.68,-1055.12 1336.95,-1064.03 1343.76,-1065.66"/>
</g>
<!-- utils/helpers.js&#45;&gt;config/constants.js -->
<g id="edge36" class="edge">
<title>utils/helpers.js&#45;&gt;config/constants.js</title>
<path fill="none" stroke="#757575" d="M591.68,-172.75C637.12,-172.75 704.69,-172.75 756.53,-172.75"/>
<polygon fill="#757575" stroke="#757575" points="756.49,-176.25 766.49,-172.75 756.49,-169.25 756.49,-176.25"/>
</g>
</g>
</svg>
